M48
; DRILL file {KiCad (5.99.0-12181-g5e8b23af64)} date Sat Sep  4 21:12:49 2021
; FORMAT={-:-/ absolute / inch / decimal}
; #@! TF.CreationDate,2021-09-04T21:12:49-05:00
; #@! TF.GenerationSoftware,Kicad,Pcbnew,(5.99.0-12181-g5e8b23af64)
; #@! TF.FileFunction,MixedPlating,1,4
FMAT,2
INCH
; #@! TA.AperFunction,Plated,PTH,ViaDrill
T1C0.0157
; #@! TA.AperFunction,Plated,PTH,ComponentDrill
T2C0.0300
; #@! TA.AperFunction,Plated,PTH,ComponentDrill
T3C0.1181
; #@! TA.AperFunction,Plated,PTH,ComponentDrill
T4C0.1400
%
G90
G05
T1
X4.425Y-2.45
X4.425Y-2.6
X4.425Y-2.75
X4.425Y-2.9
X4.425Y-3.05
X4.425Y-3.2
X4.425Y-3.35
X4.425Y-3.5
X4.425Y-3.65
X4.425Y-3.8
X4.5Y-2.525
X4.5Y-2.675
X4.5Y-2.825
X4.5Y-2.975
X4.5Y-3.125
X4.5Y-3.275
X4.5Y-3.425
X4.5Y-3.575
X4.5Y-3.725
X4.575Y-2.45
X4.575Y-2.6
X4.575Y-2.75
X4.575Y-2.9
X4.575Y-3.05
X4.575Y-3.2
X4.575Y-3.35
X4.575Y-3.5
X4.575Y-3.65
X4.575Y-3.8
X4.7Y-2.175
X4.7Y-2.325
X4.7Y-3.925
X4.7Y-4.075
X4.775Y-2.25
X4.775Y-4.0
X4.85Y-2.175
X4.85Y-2.325
X4.85Y-3.925
X4.85Y-4.075
X4.925Y-2.25
X4.925Y-4.0
X5.0Y-2.175
X5.0Y-2.325
X5.0Y-3.925
X5.0Y-4.075
X5.075Y-2.25
X5.075Y-4.0
X5.15Y-2.175
X5.15Y-2.325
X5.15Y-3.925
X5.15Y-4.075
X5.225Y-2.25
X5.225Y-4.0
X5.3Y-2.175
X5.3Y-2.325
X5.3Y-3.925
X5.3Y-4.075
X5.375Y-2.25
X5.375Y-4.0
X5.45Y-2.175
X5.45Y-2.325
X5.45Y-3.925
X5.45Y-4.075
X5.525Y-2.25
X5.525Y-4.0
X5.6Y-2.175
X5.6Y-2.325
X5.6Y-3.925
X5.6Y-4.075
X5.675Y-2.25
X5.675Y-4.0
X5.75Y-2.175
X5.75Y-2.325
X5.75Y-3.925
X5.75Y-4.075
X5.825Y-2.25
X5.825Y-4.0
X5.9Y-2.175
X5.9Y-2.325
X5.9Y-3.925
X5.9Y-4.075
X5.975Y-2.25
X5.975Y-4.0
X6.05Y-2.175
X6.05Y-2.325
X6.05Y-3.925
X6.05Y-4.075
X6.175Y-2.45
X6.175Y-2.6
X6.175Y-2.75
X6.175Y-2.9
X6.175Y-3.05
X6.175Y-3.2
X6.175Y-3.35
X6.175Y-3.5
X6.175Y-3.65
X6.175Y-3.8
X6.25Y-2.525
X6.25Y-2.675
X6.25Y-2.825
X6.25Y-2.975
X6.25Y-3.125
X6.25Y-3.275
X6.25Y-3.425
X6.25Y-3.575
X6.25Y-3.725
X6.325Y-2.45
X6.325Y-2.6
X6.325Y-2.75
X6.325Y-2.9
X6.325Y-3.05
X6.325Y-3.2
X6.325Y-3.35
X6.325Y-3.5
X6.325Y-3.65
X6.325Y-3.8
T2
X4.775Y-3.125
X4.875Y-3.125
X4.975Y-3.125
X5.075Y-3.125
X5.675Y-3.125
X5.775Y-3.125
X5.875Y-3.125
X5.975Y-3.125
T3
X4.5Y-2.25
X4.5Y-4.0
X6.25Y-2.25
X6.25Y-4.0
T4
X5.0Y-2.75
X5.0Y-3.5
X5.75Y-2.75
X5.75Y-3.5
T0
M30
