%TF.GenerationSoftware,KiCad,Pcbnew,(5.99.0-12181-g5e8b23af64)*%
%TF.CreationDate,2021-09-04T21:06:35-05:00*%
%TF.ProjectId,coax-board,636f6178-2d62-46f6-9172-642e6b696361,rev?*%
%TF.SameCoordinates,Original*%
%TF.FileFunction,Copper,L2,Inr*%
%TF.FilePolarity,Positive*%
%FSLAX46Y46*%
G04 Gerber Fmt 4.6, Leading zero omitted, Abs format (unit mm)*
G04 Created by KiCad (PCBNEW (5.99.0-12181-g5e8b23af64)) date 2021-09-04 21:06:35*
%MOMM*%
%LPD*%
G01*
G04 APERTURE LIST*
%TA.AperFunction,ComponentPad*%
%ADD10C,2.500000*%
%TD*%
%TA.AperFunction,ComponentPad*%
%ADD11C,7.000000*%
%TD*%
%TA.AperFunction,ComponentPad*%
%ADD12C,1.778000*%
%TD*%
%TA.AperFunction,ViaPad*%
%ADD13C,0.800000*%
%TD*%
%TA.AperFunction,Conductor*%
%ADD14C,0.762000*%
%TD*%
G04 APERTURE END LIST*
D10*
%TO.N,Net-(J4-Pad1)*%
%TO.C,J4*%
X140970000Y-96520000D03*
%TO.N,Net-(J4-Pad2)*%
X147320000Y-102870000D03*
X147320000Y-90170000D03*
X134620000Y-90170000D03*
X134620000Y-102870000D03*
%TD*%
D11*
%TO.N,Net-(J4-Pad2)*%
%TO.C,H4*%
X152400000Y-107950000D03*
%TD*%
D10*
%TO.N,Net-(J3-Pad1)*%
%TO.C,J3*%
X119380000Y-96520000D03*
%TO.N,Net-(J4-Pad2)*%
X125730000Y-102870000D03*
X113030000Y-102870000D03*
X113030000Y-90170000D03*
X125730000Y-90170000D03*
%TD*%
D11*
%TO.N,Net-(J4-Pad2)*%
%TO.C,H3*%
X107950000Y-107950000D03*
%TD*%
%TO.N,Net-(J4-Pad2)*%
%TO.C,H2*%
X107950000Y-63500000D03*
%TD*%
D12*
%TO.N,Net-(J4-Pad2)*%
%TO.C,J3*%
X145415000Y-85725000D03*
X137795000Y-85725000D03*
%TO.N,Net-(J2-Pad1)*%
X140335000Y-85725000D03*
%TO.N,Net-(J4-Pad1)*%
X142875000Y-85725000D03*
%TD*%
D11*
%TO.N,Net-(J4-Pad2)*%
%TO.C,H1*%
X152400000Y-63500000D03*
%TD*%
D10*
%TO.N,Net-(J2-Pad1)*%
%TO.C,J2*%
X140970000Y-74930000D03*
%TO.N,Net-(J4-Pad2)*%
X134620000Y-81280000D03*
X147320000Y-68580000D03*
X147320000Y-81280000D03*
X134620000Y-68580000D03*
%TD*%
%TO.N,Net-(J1-Pad1)*%
%TO.C,J1*%
X119380000Y-74930000D03*
%TO.N,Net-(J4-Pad2)*%
X113030000Y-68580000D03*
X125730000Y-81280000D03*
X113030000Y-81280000D03*
X125730000Y-68580000D03*
%TD*%
D12*
%TO.N,Net-(J4-Pad2)*%
%TO.C,J3*%
X114935000Y-85725000D03*
X122555000Y-85725000D03*
%TO.N,Net-(J3-Pad1)*%
X117475000Y-85725000D03*
%TO.N,Net-(J1-Pad1)*%
X120015000Y-85725000D03*
%TD*%
D13*
%TO.N,Net-(J4-Pad2)*%
X130175000Y-108585000D03*
X150495000Y-95250000D03*
X154305000Y-76200000D03*
X135890000Y-64770000D03*
X106045000Y-68580000D03*
X109855000Y-76200000D03*
X154305000Y-83820000D03*
X122555000Y-108585000D03*
X106045000Y-95250000D03*
X106045000Y-76200000D03*
X150495000Y-99060000D03*
X135890000Y-110490000D03*
X114935000Y-62865000D03*
X122555000Y-62865000D03*
X143510000Y-64770000D03*
X139700000Y-106680000D03*
X143510000Y-60960000D03*
X107950000Y-74295000D03*
X116840000Y-110490000D03*
X128270000Y-64770000D03*
X152400000Y-70485000D03*
X106045000Y-72390000D03*
X152400000Y-78105000D03*
X154305000Y-87630000D03*
X132080000Y-64770000D03*
X106045000Y-87630000D03*
X133985000Y-62865000D03*
X120650000Y-60960000D03*
X150495000Y-76200000D03*
X154305000Y-99060000D03*
X109855000Y-99060000D03*
X143510000Y-106680000D03*
X147320000Y-110490000D03*
X107950000Y-85725000D03*
X133985000Y-108585000D03*
X109855000Y-83820000D03*
X154305000Y-102870000D03*
X152400000Y-89535000D03*
X116840000Y-106680000D03*
X150495000Y-102870000D03*
X154305000Y-68580000D03*
X128270000Y-106680000D03*
X106045000Y-91440000D03*
X132080000Y-110490000D03*
X106045000Y-102870000D03*
X143510000Y-110490000D03*
X107950000Y-81915000D03*
X126365000Y-62865000D03*
X137795000Y-62865000D03*
X139700000Y-64770000D03*
X139700000Y-60960000D03*
X150495000Y-80010000D03*
X120650000Y-64770000D03*
X141605000Y-108585000D03*
X107950000Y-100965000D03*
X107950000Y-70485000D03*
X141605000Y-62865000D03*
X113030000Y-60960000D03*
X118745000Y-62865000D03*
X152400000Y-97155000D03*
X106045000Y-99060000D03*
X130175000Y-62865000D03*
X124460000Y-110490000D03*
X124460000Y-64770000D03*
X154305000Y-91440000D03*
X113030000Y-64770000D03*
X132080000Y-60960000D03*
X135890000Y-106680000D03*
X116840000Y-60960000D03*
X114935000Y-108585000D03*
X106045000Y-83820000D03*
X124460000Y-60960000D03*
X107950000Y-97155000D03*
X147320000Y-64770000D03*
X107950000Y-89535000D03*
X152400000Y-93345000D03*
X128270000Y-60960000D03*
X147320000Y-106680000D03*
X109855000Y-95250000D03*
X109855000Y-72390000D03*
X139700000Y-110490000D03*
X145415000Y-108585000D03*
X147320000Y-60960000D03*
X154305000Y-72390000D03*
X109855000Y-68580000D03*
X152400000Y-74295000D03*
X150495000Y-83820000D03*
X106045000Y-80010000D03*
X124460000Y-106680000D03*
X116840000Y-64770000D03*
X113030000Y-110490000D03*
X154305000Y-95250000D03*
X109855000Y-102870000D03*
X107950000Y-78105000D03*
X150495000Y-72390000D03*
X150495000Y-68580000D03*
X120650000Y-110490000D03*
X135890000Y-60960000D03*
X128270000Y-110490000D03*
X137795000Y-108585000D03*
X126365000Y-108585000D03*
X109855000Y-87630000D03*
X109855000Y-80010000D03*
X113030000Y-106680000D03*
X152400000Y-81915000D03*
X132080000Y-106680000D03*
X150495000Y-87630000D03*
X109855000Y-91440000D03*
X154305000Y-80010000D03*
X152400000Y-85725000D03*
X150495000Y-91440000D03*
X118745000Y-108585000D03*
X145415000Y-62865000D03*
X107950000Y-93345000D03*
X152400000Y-100965000D03*
X120650000Y-106680000D03*
%TD*%
D14*
%TO.N,Net-(J1-Pad1)*%
X120015000Y-85725000D02*
X120015000Y-75565000D01*
X120015000Y-75565000D02*
X119380000Y-74930000D01*
%TO.N,Net-(J3-Pad1)*%
X117475000Y-85725000D02*
X117475000Y-94615000D01*
X117475000Y-94615000D02*
X119380000Y-96520000D01*
%TD*%
%TA.AperFunction,Conductor*%
%TO.N,Net-(J4-Pad2)*%
G36*
X152359570Y-59182992D02*
G01*
X152389293Y-59186747D01*
X152416589Y-59184071D01*
X152434690Y-59183604D01*
X152792596Y-59200151D01*
X152804185Y-59201225D01*
X153187666Y-59254718D01*
X153199106Y-59256857D01*
X153576015Y-59345505D01*
X153587191Y-59348685D01*
X153770759Y-59410211D01*
X153954317Y-59471734D01*
X153965169Y-59475938D01*
X154319373Y-59632334D01*
X154329791Y-59637522D01*
X154668039Y-59825925D01*
X154677933Y-59832050D01*
X154719048Y-59860215D01*
X154997370Y-60050870D01*
X155006658Y-60057884D01*
X155304542Y-60305244D01*
X155313142Y-60313085D01*
X155586915Y-60586858D01*
X155594756Y-60595458D01*
X155842116Y-60893342D01*
X155849130Y-60902630D01*
X156067949Y-61222066D01*
X156074074Y-61231959D01*
X156133514Y-61338675D01*
X156262478Y-61570209D01*
X156267666Y-61580627D01*
X156424062Y-61934831D01*
X156428266Y-61945683D01*
X156551312Y-62312800D01*
X156554495Y-62323985D01*
X156566016Y-62372970D01*
X156643143Y-62700894D01*
X156645282Y-62712334D01*
X156698775Y-63095815D01*
X156699849Y-63107404D01*
X156715865Y-63453814D01*
X156715005Y-63475425D01*
X156713253Y-63489293D01*
X156715242Y-63509580D01*
X156717399Y-63531577D01*
X156718000Y-63543872D01*
X156718000Y-107893792D01*
X156717008Y-107909570D01*
X156713253Y-107939293D01*
X156715929Y-107966589D01*
X156716396Y-107984690D01*
X156701189Y-108313605D01*
X156699849Y-108342596D01*
X156698775Y-108354185D01*
X156645282Y-108737666D01*
X156643143Y-108749106D01*
X156561560Y-109095978D01*
X156554497Y-109126006D01*
X156551312Y-109137200D01*
X156428266Y-109504317D01*
X156424062Y-109515169D01*
X156267666Y-109869373D01*
X156262478Y-109879791D01*
X156091163Y-110187361D01*
X156074075Y-110218039D01*
X156067949Y-110227934D01*
X155849130Y-110547370D01*
X155842116Y-110556658D01*
X155594756Y-110854542D01*
X155586915Y-110863142D01*
X155313142Y-111136915D01*
X155304542Y-111144756D01*
X155006658Y-111392116D01*
X154997370Y-111399130D01*
X154677934Y-111617949D01*
X154668041Y-111624074D01*
X154561325Y-111683514D01*
X154329791Y-111812478D01*
X154319373Y-111817666D01*
X153965169Y-111974062D01*
X153954317Y-111978266D01*
X153770759Y-112039789D01*
X153587191Y-112101315D01*
X153576015Y-112104495D01*
X153209100Y-112190793D01*
X153199106Y-112193143D01*
X153187666Y-112195282D01*
X152804185Y-112248775D01*
X152792596Y-112249849D01*
X152446184Y-112265865D01*
X152424575Y-112265005D01*
X152410707Y-112263253D01*
X152368423Y-112267399D01*
X152356128Y-112268000D01*
X108006208Y-112268000D01*
X107990430Y-112267008D01*
X107960707Y-112263253D01*
X107933411Y-112265929D01*
X107915310Y-112266396D01*
X107557404Y-112249849D01*
X107545815Y-112248775D01*
X107162334Y-112195282D01*
X107150894Y-112193143D01*
X107140901Y-112190793D01*
X106773985Y-112104495D01*
X106762809Y-112101315D01*
X106579241Y-112039789D01*
X106395683Y-111978266D01*
X106384831Y-111974062D01*
X106030627Y-111817666D01*
X106020209Y-111812478D01*
X105788675Y-111683514D01*
X105681959Y-111624074D01*
X105672066Y-111617949D01*
X105352630Y-111399130D01*
X105343342Y-111392116D01*
X105045458Y-111144756D01*
X105036858Y-111136915D01*
X104763085Y-110863142D01*
X104755244Y-110854542D01*
X104692409Y-110778873D01*
X105486536Y-110778873D01*
X105493147Y-110788393D01*
X105633430Y-110909909D01*
X105638441Y-110913824D01*
X105944410Y-111128862D01*
X105949787Y-111132248D01*
X106275920Y-111315266D01*
X106281613Y-111318092D01*
X106624562Y-111467210D01*
X106630536Y-111469455D01*
X106986780Y-111583148D01*
X106992948Y-111584777D01*
X107358871Y-111661890D01*
X107365155Y-111662885D01*
X107737008Y-111702624D01*
X107743370Y-111702980D01*
X108117327Y-111704938D01*
X108123677Y-111704650D01*
X108495935Y-111668806D01*
X108502224Y-111667877D01*
X108868938Y-111594599D01*
X108875111Y-111593037D01*
X109232552Y-111483075D01*
X109238528Y-111480900D01*
X109583011Y-111335384D01*
X109588765Y-111332603D01*
X109916761Y-111153030D01*
X109922207Y-111149680D01*
X110230394Y-110937869D01*
X110235447Y-110934006D01*
X110405255Y-110789997D01*
X110412573Y-110778873D01*
X149936536Y-110778873D01*
X149943147Y-110788393D01*
X150083430Y-110909909D01*
X150088441Y-110913824D01*
X150394410Y-111128862D01*
X150399787Y-111132248D01*
X150725920Y-111315266D01*
X150731613Y-111318092D01*
X151074562Y-111467210D01*
X151080536Y-111469455D01*
X151436780Y-111583148D01*
X151442948Y-111584777D01*
X151808871Y-111661890D01*
X151815155Y-111662885D01*
X152187008Y-111702624D01*
X152193370Y-111702980D01*
X152567327Y-111704938D01*
X152573677Y-111704650D01*
X152945935Y-111668806D01*
X152952224Y-111667877D01*
X153318938Y-111594599D01*
X153325111Y-111593037D01*
X153682552Y-111483075D01*
X153688528Y-111480900D01*
X154033011Y-111335384D01*
X154038765Y-111332603D01*
X154366761Y-111153030D01*
X154372207Y-111149680D01*
X154680394Y-110937869D01*
X154685447Y-110934006D01*
X154855255Y-110789997D01*
X154863691Y-110777174D01*
X154857638Y-110766848D01*
X152412812Y-108322022D01*
X152398868Y-108314408D01*
X152397035Y-108314539D01*
X152390420Y-108318790D01*
X149943994Y-110765216D01*
X149936536Y-110778873D01*
X110412573Y-110778873D01*
X110413691Y-110777174D01*
X110407638Y-110766848D01*
X107962812Y-108322022D01*
X107948868Y-108314408D01*
X107947035Y-108314539D01*
X107940420Y-108318790D01*
X105493994Y-110765216D01*
X105486536Y-110778873D01*
X104692409Y-110778873D01*
X104507884Y-110556658D01*
X104500870Y-110547370D01*
X104282051Y-110227934D01*
X104275925Y-110218039D01*
X104258838Y-110187361D01*
X104087522Y-109879791D01*
X104082334Y-109869373D01*
X103925938Y-109515169D01*
X103921734Y-109504317D01*
X103798688Y-109137200D01*
X103795503Y-109126006D01*
X103788441Y-109095978D01*
X103706857Y-108749106D01*
X103704718Y-108737666D01*
X103651225Y-108354185D01*
X103650151Y-108342596D01*
X103634135Y-107996186D01*
X103634995Y-107974573D01*
X103634999Y-107974541D01*
X103636747Y-107960707D01*
X103634723Y-107940060D01*
X104191349Y-107940060D01*
X104208964Y-108313605D01*
X104209587Y-108319956D01*
X104264863Y-108689811D01*
X104266119Y-108696043D01*
X104358490Y-109058428D01*
X104360372Y-109064506D01*
X104488890Y-109415701D01*
X104491376Y-109421556D01*
X104654722Y-109757954D01*
X104657796Y-109763545D01*
X104854298Y-110081710D01*
X104857917Y-110086956D01*
X105085566Y-110383633D01*
X105089704Y-110388495D01*
X105107646Y-110407534D01*
X105121357Y-110415557D01*
X105122197Y-110415522D01*
X105130319Y-110410471D01*
X107577978Y-107962812D01*
X107584356Y-107951132D01*
X108314408Y-107951132D01*
X108314539Y-107952965D01*
X108318790Y-107959580D01*
X110768319Y-110409109D01*
X110782263Y-110416723D01*
X110783455Y-110416638D01*
X110789372Y-110412755D01*
X111019541Y-110119212D01*
X111023208Y-110114013D01*
X111223030Y-109797924D01*
X111226164Y-109792364D01*
X111393026Y-109457690D01*
X111395571Y-109451864D01*
X111527763Y-109102030D01*
X111529706Y-109095978D01*
X111625864Y-108734588D01*
X111627190Y-108728353D01*
X111686334Y-108359102D01*
X111687023Y-108352766D01*
X111708634Y-107977936D01*
X111708738Y-107974541D01*
X111708818Y-107951696D01*
X111708739Y-107948317D01*
X111708321Y-107940060D01*
X148641349Y-107940060D01*
X148658964Y-108313605D01*
X148659587Y-108319956D01*
X148714863Y-108689811D01*
X148716119Y-108696043D01*
X148808490Y-109058428D01*
X148810372Y-109064506D01*
X148938890Y-109415701D01*
X148941376Y-109421556D01*
X149104722Y-109757954D01*
X149107796Y-109763545D01*
X149304298Y-110081710D01*
X149307917Y-110086956D01*
X149535566Y-110383633D01*
X149539704Y-110388495D01*
X149557646Y-110407534D01*
X149571357Y-110415557D01*
X149572197Y-110415522D01*
X149580319Y-110410471D01*
X152027978Y-107962812D01*
X152034356Y-107951132D01*
X152764408Y-107951132D01*
X152764539Y-107952965D01*
X152768790Y-107959580D01*
X155218319Y-110409109D01*
X155232263Y-110416723D01*
X155233455Y-110416638D01*
X155239372Y-110412755D01*
X155469541Y-110119212D01*
X155473208Y-110114013D01*
X155673030Y-109797924D01*
X155676164Y-109792364D01*
X155843026Y-109457690D01*
X155845571Y-109451864D01*
X155977763Y-109102030D01*
X155979706Y-109095978D01*
X156075864Y-108734588D01*
X156077190Y-108728353D01*
X156136334Y-108359102D01*
X156137023Y-108352766D01*
X156158634Y-107977936D01*
X156158738Y-107974541D01*
X156158818Y-107951696D01*
X156158739Y-107948317D01*
X156139742Y-107573320D01*
X156139099Y-107567000D01*
X156082534Y-107197343D01*
X156081252Y-107191094D01*
X155987618Y-106829039D01*
X155985716Y-106822970D01*
X155855972Y-106472228D01*
X155853469Y-106466386D01*
X155688943Y-106130545D01*
X155685855Y-106124977D01*
X155488242Y-105807497D01*
X155484604Y-105802264D01*
X155255919Y-105506379D01*
X155251773Y-105501542D01*
X155242767Y-105492052D01*
X155229032Y-105484078D01*
X155228074Y-105484122D01*
X155220126Y-105489084D01*
X152772022Y-107937188D01*
X152764408Y-107951132D01*
X152034356Y-107951132D01*
X152035592Y-107948868D01*
X152035461Y-107947035D01*
X152031210Y-107940420D01*
X149582113Y-105491323D01*
X149568169Y-105483709D01*
X149567097Y-105483785D01*
X149559441Y-105488829D01*
X149556785Y-105491609D01*
X149552638Y-105496413D01*
X149322911Y-105791510D01*
X149319253Y-105796735D01*
X149120537Y-106113516D01*
X149117426Y-106119082D01*
X148951735Y-106454333D01*
X148949207Y-106460173D01*
X148818236Y-106810471D01*
X148816318Y-106816518D01*
X148721418Y-107178256D01*
X148720118Y-107184479D01*
X148662258Y-107553958D01*
X148661595Y-107560265D01*
X148641371Y-107933704D01*
X148641349Y-107940060D01*
X111708321Y-107940060D01*
X111689742Y-107573320D01*
X111689099Y-107567000D01*
X111632534Y-107197343D01*
X111631252Y-107191094D01*
X111537618Y-106829039D01*
X111535716Y-106822970D01*
X111405972Y-106472228D01*
X111403469Y-106466386D01*
X111238943Y-106130545D01*
X111235855Y-106124977D01*
X111038242Y-105807497D01*
X111034604Y-105802264D01*
X110805919Y-105506379D01*
X110801773Y-105501542D01*
X110792767Y-105492052D01*
X110779032Y-105484078D01*
X110778074Y-105484122D01*
X110770126Y-105489084D01*
X108322022Y-107937188D01*
X108314408Y-107951132D01*
X107584356Y-107951132D01*
X107585592Y-107948868D01*
X107585461Y-107947035D01*
X107581210Y-107940420D01*
X105132113Y-105491323D01*
X105118169Y-105483709D01*
X105117097Y-105483785D01*
X105109441Y-105488829D01*
X105106785Y-105491609D01*
X105102638Y-105496413D01*
X104872911Y-105791510D01*
X104869253Y-105796735D01*
X104670537Y-106113516D01*
X104667426Y-106119082D01*
X104501735Y-106454333D01*
X104499207Y-106460173D01*
X104368236Y-106810471D01*
X104366318Y-106816518D01*
X104271418Y-107178256D01*
X104270118Y-107184479D01*
X104212258Y-107553958D01*
X104211595Y-107560265D01*
X104191371Y-107933704D01*
X104191349Y-107940060D01*
X103634723Y-107940060D01*
X103632601Y-107918422D01*
X103632000Y-107906128D01*
X103632000Y-105122983D01*
X105486392Y-105122983D01*
X105492400Y-105133190D01*
X107937188Y-107577978D01*
X107951132Y-107585592D01*
X107952965Y-107585461D01*
X107959580Y-107581210D01*
X110406058Y-105134732D01*
X110412474Y-105122983D01*
X149936392Y-105122983D01*
X149942400Y-105133190D01*
X152387188Y-107577978D01*
X152401132Y-107585592D01*
X152402965Y-107585461D01*
X152409580Y-107581210D01*
X154856058Y-105134732D01*
X154863483Y-105121135D01*
X154856783Y-105111524D01*
X154706225Y-104982023D01*
X154701196Y-104978123D01*
X154394486Y-104764159D01*
X154389088Y-104760786D01*
X154062328Y-104578914D01*
X154056618Y-104576104D01*
X153713155Y-104428185D01*
X153707173Y-104425961D01*
X153350525Y-104313511D01*
X153344366Y-104311906D01*
X152978163Y-104236068D01*
X152971885Y-104235096D01*
X152599878Y-104196653D01*
X152593547Y-104196321D01*
X152219559Y-104195670D01*
X152213218Y-104195980D01*
X151841096Y-104233122D01*
X151834803Y-104234074D01*
X151468343Y-104308630D01*
X151462170Y-104310215D01*
X151105127Y-104421423D01*
X151099157Y-104423619D01*
X150755172Y-104570340D01*
X150749445Y-104573134D01*
X150422060Y-104753860D01*
X150416642Y-104757220D01*
X150109200Y-104970104D01*
X150104141Y-104974000D01*
X149944822Y-105110070D01*
X149936392Y-105122983D01*
X110412474Y-105122983D01*
X110413483Y-105121135D01*
X110406783Y-105111524D01*
X110256225Y-104982023D01*
X110251196Y-104978123D01*
X109944486Y-104764159D01*
X109939088Y-104760786D01*
X109612328Y-104578914D01*
X109606618Y-104576104D01*
X109263155Y-104428185D01*
X109257173Y-104425961D01*
X108900525Y-104313511D01*
X108894366Y-104311906D01*
X108528163Y-104236068D01*
X108521885Y-104235096D01*
X108149878Y-104196653D01*
X108143547Y-104196321D01*
X107769559Y-104195670D01*
X107763218Y-104195980D01*
X107391096Y-104233122D01*
X107384803Y-104234074D01*
X107018343Y-104308630D01*
X107012170Y-104310215D01*
X106655127Y-104421423D01*
X106649157Y-104423619D01*
X106305172Y-104570340D01*
X106299445Y-104573134D01*
X105972060Y-104753860D01*
X105966642Y-104757220D01*
X105659200Y-104970104D01*
X105654141Y-104974000D01*
X105494822Y-105110070D01*
X105486392Y-105122983D01*
X103632000Y-105122983D01*
X103632000Y-104099762D01*
X112165068Y-104099762D01*
X112170795Y-104107412D01*
X112340867Y-104211632D01*
X112349661Y-104216113D01*
X112559228Y-104302918D01*
X112568613Y-104305967D01*
X112789182Y-104358922D01*
X112798929Y-104360465D01*
X113025070Y-104378263D01*
X113034930Y-104378263D01*
X113261071Y-104360465D01*
X113270818Y-104358922D01*
X113491387Y-104305967D01*
X113500772Y-104302918D01*
X113710339Y-104216113D01*
X113719133Y-104211632D01*
X113885539Y-104109659D01*
X113894493Y-104099762D01*
X124865068Y-104099762D01*
X124870795Y-104107412D01*
X125040867Y-104211632D01*
X125049661Y-104216113D01*
X125259228Y-104302918D01*
X125268613Y-104305967D01*
X125489182Y-104358922D01*
X125498929Y-104360465D01*
X125725070Y-104378263D01*
X125734930Y-104378263D01*
X125961071Y-104360465D01*
X125970818Y-104358922D01*
X126191387Y-104305967D01*
X126200772Y-104302918D01*
X126410339Y-104216113D01*
X126419133Y-104211632D01*
X126585539Y-104109659D01*
X126594493Y-104099762D01*
X133755068Y-104099762D01*
X133760795Y-104107412D01*
X133930867Y-104211632D01*
X133939661Y-104216113D01*
X134149228Y-104302918D01*
X134158613Y-104305967D01*
X134379182Y-104358922D01*
X134388929Y-104360465D01*
X134615070Y-104378263D01*
X134624930Y-104378263D01*
X134851071Y-104360465D01*
X134860818Y-104358922D01*
X135081387Y-104305967D01*
X135090772Y-104302918D01*
X135300339Y-104216113D01*
X135309133Y-104211632D01*
X135475539Y-104109659D01*
X135484493Y-104099762D01*
X146455068Y-104099762D01*
X146460795Y-104107412D01*
X146630867Y-104211632D01*
X146639661Y-104216113D01*
X146849228Y-104302918D01*
X146858613Y-104305967D01*
X147079182Y-104358922D01*
X147088929Y-104360465D01*
X147315070Y-104378263D01*
X147324930Y-104378263D01*
X147551071Y-104360465D01*
X147560818Y-104358922D01*
X147781387Y-104305967D01*
X147790772Y-104302918D01*
X148000339Y-104216113D01*
X148009133Y-104211632D01*
X148175539Y-104109659D01*
X148184999Y-104099203D01*
X148181215Y-104090425D01*
X147332812Y-103242022D01*
X147318868Y-103234408D01*
X147317035Y-103234539D01*
X147310420Y-103238790D01*
X146461828Y-104087382D01*
X146455068Y-104099762D01*
X135484493Y-104099762D01*
X135484999Y-104099203D01*
X135481215Y-104090425D01*
X134632812Y-103242022D01*
X134618868Y-103234408D01*
X134617035Y-103234539D01*
X134610420Y-103238790D01*
X133761828Y-104087382D01*
X133755068Y-104099762D01*
X126594493Y-104099762D01*
X126594999Y-104099203D01*
X126591215Y-104090425D01*
X125742812Y-103242022D01*
X125728868Y-103234408D01*
X125727035Y-103234539D01*
X125720420Y-103238790D01*
X124871828Y-104087382D01*
X124865068Y-104099762D01*
X113894493Y-104099762D01*
X113894999Y-104099203D01*
X113891215Y-104090425D01*
X113042812Y-103242022D01*
X113028868Y-103234408D01*
X113027035Y-103234539D01*
X113020420Y-103238790D01*
X112171828Y-104087382D01*
X112165068Y-104099762D01*
X103632000Y-104099762D01*
X103632000Y-102865070D01*
X111521737Y-102865070D01*
X111521737Y-102874930D01*
X111539535Y-103101071D01*
X111541078Y-103110818D01*
X111594033Y-103331387D01*
X111597082Y-103340772D01*
X111683887Y-103550339D01*
X111688368Y-103559133D01*
X111790341Y-103725539D01*
X111800797Y-103734999D01*
X111809575Y-103731215D01*
X112657978Y-102882812D01*
X112664356Y-102871132D01*
X113394408Y-102871132D01*
X113394539Y-102872965D01*
X113398790Y-102879580D01*
X114247382Y-103728172D01*
X114259762Y-103734932D01*
X114267412Y-103729205D01*
X114371632Y-103559133D01*
X114376113Y-103550339D01*
X114462918Y-103340772D01*
X114465967Y-103331387D01*
X114518922Y-103110818D01*
X114520465Y-103101071D01*
X114538263Y-102874930D01*
X114538263Y-102865070D01*
X124221737Y-102865070D01*
X124221737Y-102874930D01*
X124239535Y-103101071D01*
X124241078Y-103110818D01*
X124294033Y-103331387D01*
X124297082Y-103340772D01*
X124383887Y-103550339D01*
X124388368Y-103559133D01*
X124490341Y-103725539D01*
X124500797Y-103734999D01*
X124509575Y-103731215D01*
X125357978Y-102882812D01*
X125364356Y-102871132D01*
X126094408Y-102871132D01*
X126094539Y-102872965D01*
X126098790Y-102879580D01*
X126947382Y-103728172D01*
X126959762Y-103734932D01*
X126967412Y-103729205D01*
X127071632Y-103559133D01*
X127076113Y-103550339D01*
X127162918Y-103340772D01*
X127165967Y-103331387D01*
X127218922Y-103110818D01*
X127220465Y-103101071D01*
X127238263Y-102874930D01*
X127238263Y-102865070D01*
X133111737Y-102865070D01*
X133111737Y-102874930D01*
X133129535Y-103101071D01*
X133131078Y-103110818D01*
X133184033Y-103331387D01*
X133187082Y-103340772D01*
X133273887Y-103550339D01*
X133278368Y-103559133D01*
X133380341Y-103725539D01*
X133390797Y-103734999D01*
X133399575Y-103731215D01*
X134247978Y-102882812D01*
X134254356Y-102871132D01*
X134984408Y-102871132D01*
X134984539Y-102872965D01*
X134988790Y-102879580D01*
X135837382Y-103728172D01*
X135849762Y-103734932D01*
X135857412Y-103729205D01*
X135961632Y-103559133D01*
X135966113Y-103550339D01*
X136052918Y-103340772D01*
X136055967Y-103331387D01*
X136108922Y-103110818D01*
X136110465Y-103101071D01*
X136128263Y-102874930D01*
X136128263Y-102865070D01*
X145811737Y-102865070D01*
X145811737Y-102874930D01*
X145829535Y-103101071D01*
X145831078Y-103110818D01*
X145884033Y-103331387D01*
X145887082Y-103340772D01*
X145973887Y-103550339D01*
X145978368Y-103559133D01*
X146080341Y-103725539D01*
X146090797Y-103734999D01*
X146099575Y-103731215D01*
X146947978Y-102882812D01*
X146954356Y-102871132D01*
X147684408Y-102871132D01*
X147684539Y-102872965D01*
X147688790Y-102879580D01*
X148537382Y-103728172D01*
X148549762Y-103734932D01*
X148557412Y-103729205D01*
X148661632Y-103559133D01*
X148666113Y-103550339D01*
X148752918Y-103340772D01*
X148755967Y-103331387D01*
X148808922Y-103110818D01*
X148810465Y-103101071D01*
X148828263Y-102874930D01*
X148828263Y-102865070D01*
X148810465Y-102638929D01*
X148808922Y-102629182D01*
X148755967Y-102408613D01*
X148752918Y-102399228D01*
X148666113Y-102189661D01*
X148661632Y-102180867D01*
X148559659Y-102014461D01*
X148549203Y-102005001D01*
X148540425Y-102008785D01*
X147692022Y-102857188D01*
X147684408Y-102871132D01*
X146954356Y-102871132D01*
X146955592Y-102868868D01*
X146955461Y-102867035D01*
X146951210Y-102860420D01*
X146102618Y-102011828D01*
X146090238Y-102005068D01*
X146082588Y-102010795D01*
X145978368Y-102180867D01*
X145973887Y-102189661D01*
X145887082Y-102399228D01*
X145884033Y-102408613D01*
X145831078Y-102629182D01*
X145829535Y-102638929D01*
X145811737Y-102865070D01*
X136128263Y-102865070D01*
X136110465Y-102638929D01*
X136108922Y-102629182D01*
X136055967Y-102408613D01*
X136052918Y-102399228D01*
X135966113Y-102189661D01*
X135961632Y-102180867D01*
X135859659Y-102014461D01*
X135849203Y-102005001D01*
X135840425Y-102008785D01*
X134992022Y-102857188D01*
X134984408Y-102871132D01*
X134254356Y-102871132D01*
X134255592Y-102868868D01*
X134255461Y-102867035D01*
X134251210Y-102860420D01*
X133402618Y-102011828D01*
X133390238Y-102005068D01*
X133382588Y-102010795D01*
X133278368Y-102180867D01*
X133273887Y-102189661D01*
X133187082Y-102399228D01*
X133184033Y-102408613D01*
X133131078Y-102629182D01*
X133129535Y-102638929D01*
X133111737Y-102865070D01*
X127238263Y-102865070D01*
X127220465Y-102638929D01*
X127218922Y-102629182D01*
X127165967Y-102408613D01*
X127162918Y-102399228D01*
X127076113Y-102189661D01*
X127071632Y-102180867D01*
X126969659Y-102014461D01*
X126959203Y-102005001D01*
X126950425Y-102008785D01*
X126102022Y-102857188D01*
X126094408Y-102871132D01*
X125364356Y-102871132D01*
X125365592Y-102868868D01*
X125365461Y-102867035D01*
X125361210Y-102860420D01*
X124512618Y-102011828D01*
X124500238Y-102005068D01*
X124492588Y-102010795D01*
X124388368Y-102180867D01*
X124383887Y-102189661D01*
X124297082Y-102399228D01*
X124294033Y-102408613D01*
X124241078Y-102629182D01*
X124239535Y-102638929D01*
X124221737Y-102865070D01*
X114538263Y-102865070D01*
X114520465Y-102638929D01*
X114518922Y-102629182D01*
X114465967Y-102408613D01*
X114462918Y-102399228D01*
X114376113Y-102189661D01*
X114371632Y-102180867D01*
X114269659Y-102014461D01*
X114259203Y-102005001D01*
X114250425Y-102008785D01*
X113402022Y-102857188D01*
X113394408Y-102871132D01*
X112664356Y-102871132D01*
X112665592Y-102868868D01*
X112665461Y-102867035D01*
X112661210Y-102860420D01*
X111812618Y-102011828D01*
X111800238Y-102005068D01*
X111792588Y-102010795D01*
X111688368Y-102180867D01*
X111683887Y-102189661D01*
X111597082Y-102399228D01*
X111594033Y-102408613D01*
X111541078Y-102629182D01*
X111539535Y-102638929D01*
X111521737Y-102865070D01*
X103632000Y-102865070D01*
X103632000Y-101640797D01*
X112165001Y-101640797D01*
X112168785Y-101649575D01*
X113017188Y-102497978D01*
X113031132Y-102505592D01*
X113032965Y-102505461D01*
X113039580Y-102501210D01*
X113888172Y-101652618D01*
X113894627Y-101640797D01*
X124865001Y-101640797D01*
X124868785Y-101649575D01*
X125717188Y-102497978D01*
X125731132Y-102505592D01*
X125732965Y-102505461D01*
X125739580Y-102501210D01*
X126588172Y-101652618D01*
X126594627Y-101640797D01*
X133755001Y-101640797D01*
X133758785Y-101649575D01*
X134607188Y-102497978D01*
X134621132Y-102505592D01*
X134622965Y-102505461D01*
X134629580Y-102501210D01*
X135478172Y-101652618D01*
X135484627Y-101640797D01*
X146455001Y-101640797D01*
X146458785Y-101649575D01*
X147307188Y-102497978D01*
X147321132Y-102505592D01*
X147322965Y-102505461D01*
X147329580Y-102501210D01*
X148178172Y-101652618D01*
X148184932Y-101640238D01*
X148179205Y-101632588D01*
X148009133Y-101528368D01*
X148000339Y-101523887D01*
X147790772Y-101437082D01*
X147781387Y-101434033D01*
X147560818Y-101381078D01*
X147551071Y-101379535D01*
X147324930Y-101361737D01*
X147315070Y-101361737D01*
X147088929Y-101379535D01*
X147079182Y-101381078D01*
X146858613Y-101434033D01*
X146849228Y-101437082D01*
X146639661Y-101523887D01*
X146630867Y-101528368D01*
X146464461Y-101630341D01*
X146455001Y-101640797D01*
X135484627Y-101640797D01*
X135484932Y-101640238D01*
X135479205Y-101632588D01*
X135309133Y-101528368D01*
X135300339Y-101523887D01*
X135090772Y-101437082D01*
X135081387Y-101434033D01*
X134860818Y-101381078D01*
X134851071Y-101379535D01*
X134624930Y-101361737D01*
X134615070Y-101361737D01*
X134388929Y-101379535D01*
X134379182Y-101381078D01*
X134158613Y-101434033D01*
X134149228Y-101437082D01*
X133939661Y-101523887D01*
X133930867Y-101528368D01*
X133764461Y-101630341D01*
X133755001Y-101640797D01*
X126594627Y-101640797D01*
X126594932Y-101640238D01*
X126589205Y-101632588D01*
X126419133Y-101528368D01*
X126410339Y-101523887D01*
X126200772Y-101437082D01*
X126191387Y-101434033D01*
X125970818Y-101381078D01*
X125961071Y-101379535D01*
X125734930Y-101361737D01*
X125725070Y-101361737D01*
X125498929Y-101379535D01*
X125489182Y-101381078D01*
X125268613Y-101434033D01*
X125259228Y-101437082D01*
X125049661Y-101523887D01*
X125040867Y-101528368D01*
X124874461Y-101630341D01*
X124865001Y-101640797D01*
X113894627Y-101640797D01*
X113894932Y-101640238D01*
X113889205Y-101632588D01*
X113719133Y-101528368D01*
X113710339Y-101523887D01*
X113500772Y-101437082D01*
X113491387Y-101434033D01*
X113270818Y-101381078D01*
X113261071Y-101379535D01*
X113034930Y-101361737D01*
X113025070Y-101361737D01*
X112798929Y-101379535D01*
X112789182Y-101381078D01*
X112568613Y-101434033D01*
X112559228Y-101437082D01*
X112349661Y-101523887D01*
X112340867Y-101528368D01*
X112174461Y-101630341D01*
X112165001Y-101640797D01*
X103632000Y-101640797D01*
X103632000Y-91399762D01*
X112165068Y-91399762D01*
X112170795Y-91407412D01*
X112340867Y-91511632D01*
X112349661Y-91516113D01*
X112559228Y-91602918D01*
X112568613Y-91605967D01*
X112789182Y-91658922D01*
X112798929Y-91660465D01*
X113025070Y-91678263D01*
X113034930Y-91678263D01*
X113261071Y-91660465D01*
X113270818Y-91658922D01*
X113491387Y-91605967D01*
X113500772Y-91602918D01*
X113710339Y-91516113D01*
X113719133Y-91511632D01*
X113885539Y-91409659D01*
X113894999Y-91399203D01*
X113891215Y-91390425D01*
X113042812Y-90542022D01*
X113028868Y-90534408D01*
X113027035Y-90534539D01*
X113020420Y-90538790D01*
X112171828Y-91387382D01*
X112165068Y-91399762D01*
X103632000Y-91399762D01*
X103632000Y-90165070D01*
X111521737Y-90165070D01*
X111521737Y-90174930D01*
X111539535Y-90401071D01*
X111541078Y-90410818D01*
X111594033Y-90631387D01*
X111597082Y-90640772D01*
X111683887Y-90850339D01*
X111688368Y-90859133D01*
X111790341Y-91025539D01*
X111800797Y-91034999D01*
X111809575Y-91031215D01*
X112657978Y-90182812D01*
X112664356Y-90171132D01*
X113394408Y-90171132D01*
X113394539Y-90172965D01*
X113398790Y-90179580D01*
X114247382Y-91028172D01*
X114259762Y-91034932D01*
X114267412Y-91029205D01*
X114371632Y-90859133D01*
X114376113Y-90850339D01*
X114462918Y-90640772D01*
X114465967Y-90631387D01*
X114518922Y-90410818D01*
X114520465Y-90401071D01*
X114538263Y-90174930D01*
X114538263Y-90165070D01*
X114520465Y-89938929D01*
X114518922Y-89929182D01*
X114465967Y-89708613D01*
X114462918Y-89699228D01*
X114376113Y-89489661D01*
X114371632Y-89480867D01*
X114269659Y-89314461D01*
X114259203Y-89305001D01*
X114250425Y-89308785D01*
X113402022Y-90157188D01*
X113394408Y-90171132D01*
X112664356Y-90171132D01*
X112665592Y-90168868D01*
X112665461Y-90167035D01*
X112661210Y-90160420D01*
X111812618Y-89311828D01*
X111800238Y-89305068D01*
X111792588Y-89310795D01*
X111688368Y-89480867D01*
X111683887Y-89489661D01*
X111597082Y-89699228D01*
X111594033Y-89708613D01*
X111541078Y-89929182D01*
X111539535Y-89938929D01*
X111521737Y-90165070D01*
X103632000Y-90165070D01*
X103632000Y-88940797D01*
X112165001Y-88940797D01*
X112168785Y-88949575D01*
X113017188Y-89797978D01*
X113031132Y-89805592D01*
X113032965Y-89805461D01*
X113039580Y-89801210D01*
X113888172Y-88952618D01*
X113894932Y-88940238D01*
X113889205Y-88932588D01*
X113719133Y-88828368D01*
X113710339Y-88823887D01*
X113500772Y-88737082D01*
X113491387Y-88734033D01*
X113270818Y-88681078D01*
X113261071Y-88679535D01*
X113034930Y-88661737D01*
X113025070Y-88661737D01*
X112798929Y-88679535D01*
X112789182Y-88681078D01*
X112568613Y-88734033D01*
X112559228Y-88737082D01*
X112349661Y-88823887D01*
X112340867Y-88828368D01*
X112174461Y-88930341D01*
X112165001Y-88940797D01*
X103632000Y-88940797D01*
X103632000Y-86691530D01*
X114332830Y-86691530D01*
X114342710Y-86704017D01*
X114382472Y-86730585D01*
X114392575Y-86736071D01*
X114574973Y-86814435D01*
X114585916Y-86817990D01*
X114779533Y-86861802D01*
X114790942Y-86863304D01*
X114989308Y-86871097D01*
X115000790Y-86870495D01*
X115197250Y-86842011D01*
X115208445Y-86839323D01*
X115396424Y-86775512D01*
X115406931Y-86770834D01*
X115528745Y-86702614D01*
X115538610Y-86692536D01*
X115535654Y-86684864D01*
X114947812Y-86097022D01*
X114933868Y-86089408D01*
X114932035Y-86089539D01*
X114925420Y-86093790D01*
X114339027Y-86680183D01*
X114332830Y-86691530D01*
X103632000Y-86691530D01*
X103632000Y-85700718D01*
X113787874Y-85700718D01*
X113800858Y-85898803D01*
X113802659Y-85910173D01*
X113851523Y-86102576D01*
X113855364Y-86113423D01*
X113938475Y-86293705D01*
X113944223Y-86303661D01*
X113955675Y-86319867D01*
X113966263Y-86328254D01*
X113979564Y-86321226D01*
X114562978Y-85737812D01*
X114569356Y-85726132D01*
X115299408Y-85726132D01*
X115299539Y-85727965D01*
X115303790Y-85734580D01*
X115890951Y-86321741D01*
X115908354Y-86331244D01*
X115958556Y-86381446D01*
X115964377Y-86393613D01*
X115998952Y-86477084D01*
X116134777Y-86698729D01*
X116137994Y-86702496D01*
X116137995Y-86702497D01*
X116301311Y-86893716D01*
X116330342Y-86958505D01*
X116331500Y-86975546D01*
X116331500Y-94572195D01*
X116331230Y-94580436D01*
X116326994Y-94645061D01*
X116337399Y-94732973D01*
X116337736Y-94736186D01*
X116345831Y-94824279D01*
X116347399Y-94829839D01*
X116348061Y-94833412D01*
X116350250Y-94844415D01*
X116351018Y-94848028D01*
X116351697Y-94853765D01*
X116377938Y-94938276D01*
X116378854Y-94941373D01*
X116402877Y-95026549D01*
X116405433Y-95031732D01*
X116406742Y-95035143D01*
X116410901Y-95045566D01*
X116412304Y-95048953D01*
X116414018Y-95054473D01*
X116416709Y-95059587D01*
X116416709Y-95059588D01*
X116455198Y-95132745D01*
X116456695Y-95135681D01*
X116495829Y-95215037D01*
X116499287Y-95219668D01*
X116501250Y-95222871D01*
X116507173Y-95232258D01*
X116509182Y-95235351D01*
X116511871Y-95240463D01*
X116566656Y-95309956D01*
X116568627Y-95312526D01*
X116618116Y-95378801D01*
X116618123Y-95378808D01*
X116621573Y-95383429D01*
X116625807Y-95387343D01*
X116625809Y-95387345D01*
X116681973Y-95439262D01*
X116685539Y-95442692D01*
X117350748Y-96107901D01*
X117384774Y-96170213D01*
X117384756Y-96216709D01*
X117385977Y-96216889D01*
X117385351Y-96221130D01*
X117384437Y-96225321D01*
X117362908Y-96498876D01*
X117378703Y-96772823D01*
X117379528Y-96777030D01*
X117379529Y-96777035D01*
X117412007Y-96942575D01*
X117431532Y-97042091D01*
X117520415Y-97301698D01*
X117643709Y-97546840D01*
X117799131Y-97772981D01*
X117983807Y-97975937D01*
X117987096Y-97978687D01*
X118191026Y-98149200D01*
X118191031Y-98149204D01*
X118194318Y-98151952D01*
X118252404Y-98188389D01*
X118423129Y-98295485D01*
X118423133Y-98295487D01*
X118426769Y-98297768D01*
X118430679Y-98299533D01*
X118430680Y-98299534D01*
X118672947Y-98408922D01*
X118672951Y-98408924D01*
X118676859Y-98410688D01*
X118680979Y-98411908D01*
X118680978Y-98411908D01*
X118935848Y-98487404D01*
X118935852Y-98487405D01*
X118939961Y-98488622D01*
X118944195Y-98489270D01*
X118944200Y-98489271D01*
X119206963Y-98529479D01*
X119206965Y-98529479D01*
X119211205Y-98530128D01*
X119350906Y-98532323D01*
X119481281Y-98534371D01*
X119481287Y-98534371D01*
X119485572Y-98534438D01*
X119757986Y-98501473D01*
X120023406Y-98431841D01*
X120276919Y-98326832D01*
X120326657Y-98297768D01*
X120510128Y-98190556D01*
X120510130Y-98190554D01*
X120513836Y-98188389D01*
X120729772Y-98019074D01*
X120920732Y-97822019D01*
X120923265Y-97818571D01*
X120923269Y-97818566D01*
X121080643Y-97604326D01*
X121083181Y-97600871D01*
X121214114Y-97359723D01*
X121311108Y-97103036D01*
X121372368Y-96835560D01*
X121377592Y-96777035D01*
X121396541Y-96564710D01*
X121396761Y-96562245D01*
X121397203Y-96520000D01*
X121395763Y-96498876D01*
X138952908Y-96498876D01*
X138968703Y-96772823D01*
X138969528Y-96777030D01*
X138969529Y-96777035D01*
X139002007Y-96942575D01*
X139021532Y-97042091D01*
X139110415Y-97301698D01*
X139233709Y-97546840D01*
X139389131Y-97772981D01*
X139573807Y-97975937D01*
X139577096Y-97978687D01*
X139781026Y-98149200D01*
X139781031Y-98149204D01*
X139784318Y-98151952D01*
X139842404Y-98188389D01*
X140013129Y-98295485D01*
X140013133Y-98295487D01*
X140016769Y-98297768D01*
X140020679Y-98299533D01*
X140020680Y-98299534D01*
X140262947Y-98408922D01*
X140262951Y-98408924D01*
X140266859Y-98410688D01*
X140270979Y-98411908D01*
X140270978Y-98411908D01*
X140525848Y-98487404D01*
X140525852Y-98487405D01*
X140529961Y-98488622D01*
X140534195Y-98489270D01*
X140534200Y-98489271D01*
X140796963Y-98529479D01*
X140796965Y-98529479D01*
X140801205Y-98530128D01*
X140940906Y-98532323D01*
X141071281Y-98534371D01*
X141071287Y-98534371D01*
X141075572Y-98534438D01*
X141347986Y-98501473D01*
X141613406Y-98431841D01*
X141866919Y-98326832D01*
X141916657Y-98297768D01*
X142100128Y-98190556D01*
X142100130Y-98190554D01*
X142103836Y-98188389D01*
X142319772Y-98019074D01*
X142510732Y-97822019D01*
X142513265Y-97818571D01*
X142513269Y-97818566D01*
X142670643Y-97604326D01*
X142673181Y-97600871D01*
X142804114Y-97359723D01*
X142901108Y-97103036D01*
X142962368Y-96835560D01*
X142967592Y-96777035D01*
X142986541Y-96564710D01*
X142986761Y-96562245D01*
X142987203Y-96520000D01*
X142968540Y-96246234D01*
X142965094Y-96229591D01*
X142913764Y-95981736D01*
X142912894Y-95977534D01*
X142821297Y-95718872D01*
X142695443Y-95475034D01*
X142537661Y-95250533D01*
X142350870Y-95049522D01*
X142138528Y-94875722D01*
X141904562Y-94732347D01*
X141878652Y-94720973D01*
X141657235Y-94623778D01*
X141653303Y-94622052D01*
X141389400Y-94546878D01*
X141385158Y-94546274D01*
X141385152Y-94546273D01*
X141121987Y-94508819D01*
X141117736Y-94508214D01*
X140973155Y-94507457D01*
X140847625Y-94506799D01*
X140847618Y-94506799D01*
X140843339Y-94506777D01*
X140839095Y-94507336D01*
X140839091Y-94507336D01*
X140749965Y-94519070D01*
X140571285Y-94542594D01*
X140567145Y-94543727D01*
X140567143Y-94543727D01*
X140555625Y-94546878D01*
X140306609Y-94615001D01*
X140302661Y-94616685D01*
X140058161Y-94720973D01*
X140058157Y-94720975D01*
X140054209Y-94722659D01*
X139935335Y-94793803D01*
X139822437Y-94861371D01*
X139822433Y-94861374D01*
X139818755Y-94863575D01*
X139815412Y-94866253D01*
X139815408Y-94866256D01*
X139803593Y-94875722D01*
X139604604Y-95035143D01*
X139601660Y-95038245D01*
X139601656Y-95038249D01*
X139422427Y-95227116D01*
X139415718Y-95234186D01*
X139255594Y-95457023D01*
X139127193Y-95699530D01*
X139032893Y-95957218D01*
X138974437Y-96225321D01*
X138952908Y-96498876D01*
X121395763Y-96498876D01*
X121378540Y-96246234D01*
X121375094Y-96229591D01*
X121323764Y-95981736D01*
X121322894Y-95977534D01*
X121231297Y-95718872D01*
X121105443Y-95475034D01*
X120947661Y-95250533D01*
X120760870Y-95049522D01*
X120548528Y-94875722D01*
X120314562Y-94732347D01*
X120288652Y-94720973D01*
X120067235Y-94623778D01*
X120063303Y-94622052D01*
X119799400Y-94546878D01*
X119795158Y-94546274D01*
X119795152Y-94546273D01*
X119531987Y-94508819D01*
X119527736Y-94508214D01*
X119383155Y-94507457D01*
X119257625Y-94506799D01*
X119257618Y-94506799D01*
X119253339Y-94506777D01*
X119249095Y-94507336D01*
X119249091Y-94507336D01*
X119168151Y-94517992D01*
X119076875Y-94530009D01*
X119006728Y-94519070D01*
X118971335Y-94494182D01*
X118655405Y-94178252D01*
X118621379Y-94115940D01*
X118618500Y-94089157D01*
X118618500Y-91399762D01*
X124865068Y-91399762D01*
X124870795Y-91407412D01*
X125040867Y-91511632D01*
X125049661Y-91516113D01*
X125259228Y-91602918D01*
X125268613Y-91605967D01*
X125489182Y-91658922D01*
X125498929Y-91660465D01*
X125725070Y-91678263D01*
X125734930Y-91678263D01*
X125961071Y-91660465D01*
X125970818Y-91658922D01*
X126191387Y-91605967D01*
X126200772Y-91602918D01*
X126410339Y-91516113D01*
X126419133Y-91511632D01*
X126585539Y-91409659D01*
X126594493Y-91399762D01*
X133755068Y-91399762D01*
X133760795Y-91407412D01*
X133930867Y-91511632D01*
X133939661Y-91516113D01*
X134149228Y-91602918D01*
X134158613Y-91605967D01*
X134379182Y-91658922D01*
X134388929Y-91660465D01*
X134615070Y-91678263D01*
X134624930Y-91678263D01*
X134851071Y-91660465D01*
X134860818Y-91658922D01*
X135081387Y-91605967D01*
X135090772Y-91602918D01*
X135300339Y-91516113D01*
X135309133Y-91511632D01*
X135475539Y-91409659D01*
X135484493Y-91399762D01*
X146455068Y-91399762D01*
X146460795Y-91407412D01*
X146630867Y-91511632D01*
X146639661Y-91516113D01*
X146849228Y-91602918D01*
X146858613Y-91605967D01*
X147079182Y-91658922D01*
X147088929Y-91660465D01*
X147315070Y-91678263D01*
X147324930Y-91678263D01*
X147551071Y-91660465D01*
X147560818Y-91658922D01*
X147781387Y-91605967D01*
X147790772Y-91602918D01*
X148000339Y-91516113D01*
X148009133Y-91511632D01*
X148175539Y-91409659D01*
X148184999Y-91399203D01*
X148181215Y-91390425D01*
X147332812Y-90542022D01*
X147318868Y-90534408D01*
X147317035Y-90534539D01*
X147310420Y-90538790D01*
X146461828Y-91387382D01*
X146455068Y-91399762D01*
X135484493Y-91399762D01*
X135484999Y-91399203D01*
X135481215Y-91390425D01*
X134632812Y-90542022D01*
X134618868Y-90534408D01*
X134617035Y-90534539D01*
X134610420Y-90538790D01*
X133761828Y-91387382D01*
X133755068Y-91399762D01*
X126594493Y-91399762D01*
X126594999Y-91399203D01*
X126591215Y-91390425D01*
X125742812Y-90542022D01*
X125728868Y-90534408D01*
X125727035Y-90534539D01*
X125720420Y-90538790D01*
X124871828Y-91387382D01*
X124865068Y-91399762D01*
X118618500Y-91399762D01*
X118618500Y-90165070D01*
X124221737Y-90165070D01*
X124221737Y-90174930D01*
X124239535Y-90401071D01*
X124241078Y-90410818D01*
X124294033Y-90631387D01*
X124297082Y-90640772D01*
X124383887Y-90850339D01*
X124388368Y-90859133D01*
X124490341Y-91025539D01*
X124500797Y-91034999D01*
X124509575Y-91031215D01*
X125357978Y-90182812D01*
X125364356Y-90171132D01*
X126094408Y-90171132D01*
X126094539Y-90172965D01*
X126098790Y-90179580D01*
X126947382Y-91028172D01*
X126959762Y-91034932D01*
X126967412Y-91029205D01*
X127071632Y-90859133D01*
X127076113Y-90850339D01*
X127162918Y-90640772D01*
X127165967Y-90631387D01*
X127218922Y-90410818D01*
X127220465Y-90401071D01*
X127238263Y-90174930D01*
X127238263Y-90165070D01*
X133111737Y-90165070D01*
X133111737Y-90174930D01*
X133129535Y-90401071D01*
X133131078Y-90410818D01*
X133184033Y-90631387D01*
X133187082Y-90640772D01*
X133273887Y-90850339D01*
X133278368Y-90859133D01*
X133380341Y-91025539D01*
X133390797Y-91034999D01*
X133399575Y-91031215D01*
X134247978Y-90182812D01*
X134254356Y-90171132D01*
X134984408Y-90171132D01*
X134984539Y-90172965D01*
X134988790Y-90179580D01*
X135837382Y-91028172D01*
X135849762Y-91034932D01*
X135857412Y-91029205D01*
X135961632Y-90859133D01*
X135966113Y-90850339D01*
X136052918Y-90640772D01*
X136055967Y-90631387D01*
X136108922Y-90410818D01*
X136110465Y-90401071D01*
X136128263Y-90174930D01*
X136128263Y-90165070D01*
X145811737Y-90165070D01*
X145811737Y-90174930D01*
X145829535Y-90401071D01*
X145831078Y-90410818D01*
X145884033Y-90631387D01*
X145887082Y-90640772D01*
X145973887Y-90850339D01*
X145978368Y-90859133D01*
X146080341Y-91025539D01*
X146090797Y-91034999D01*
X146099575Y-91031215D01*
X146947978Y-90182812D01*
X146954356Y-90171132D01*
X147684408Y-90171132D01*
X147684539Y-90172965D01*
X147688790Y-90179580D01*
X148537382Y-91028172D01*
X148549762Y-91034932D01*
X148557412Y-91029205D01*
X148661632Y-90859133D01*
X148666113Y-90850339D01*
X148752918Y-90640772D01*
X148755967Y-90631387D01*
X148808922Y-90410818D01*
X148810465Y-90401071D01*
X148828263Y-90174930D01*
X148828263Y-90165070D01*
X148810465Y-89938929D01*
X148808922Y-89929182D01*
X148755967Y-89708613D01*
X148752918Y-89699228D01*
X148666113Y-89489661D01*
X148661632Y-89480867D01*
X148559659Y-89314461D01*
X148549203Y-89305001D01*
X148540425Y-89308785D01*
X147692022Y-90157188D01*
X147684408Y-90171132D01*
X146954356Y-90171132D01*
X146955592Y-90168868D01*
X146955461Y-90167035D01*
X146951210Y-90160420D01*
X146102618Y-89311828D01*
X146090238Y-89305068D01*
X146082588Y-89310795D01*
X145978368Y-89480867D01*
X145973887Y-89489661D01*
X145887082Y-89699228D01*
X145884033Y-89708613D01*
X145831078Y-89929182D01*
X145829535Y-89938929D01*
X145811737Y-90165070D01*
X136128263Y-90165070D01*
X136110465Y-89938929D01*
X136108922Y-89929182D01*
X136055967Y-89708613D01*
X136052918Y-89699228D01*
X135966113Y-89489661D01*
X135961632Y-89480867D01*
X135859659Y-89314461D01*
X135849203Y-89305001D01*
X135840425Y-89308785D01*
X134992022Y-90157188D01*
X134984408Y-90171132D01*
X134254356Y-90171132D01*
X134255592Y-90168868D01*
X134255461Y-90167035D01*
X134251210Y-90160420D01*
X133402618Y-89311828D01*
X133390238Y-89305068D01*
X133382588Y-89310795D01*
X133278368Y-89480867D01*
X133273887Y-89489661D01*
X133187082Y-89699228D01*
X133184033Y-89708613D01*
X133131078Y-89929182D01*
X133129535Y-89938929D01*
X133111737Y-90165070D01*
X127238263Y-90165070D01*
X127220465Y-89938929D01*
X127218922Y-89929182D01*
X127165967Y-89708613D01*
X127162918Y-89699228D01*
X127076113Y-89489661D01*
X127071632Y-89480867D01*
X126969659Y-89314461D01*
X126959203Y-89305001D01*
X126950425Y-89308785D01*
X126102022Y-90157188D01*
X126094408Y-90171132D01*
X125364356Y-90171132D01*
X125365592Y-90168868D01*
X125365461Y-90167035D01*
X125361210Y-90160420D01*
X124512618Y-89311828D01*
X124500238Y-89305068D01*
X124492588Y-89310795D01*
X124388368Y-89480867D01*
X124383887Y-89489661D01*
X124297082Y-89699228D01*
X124294033Y-89708613D01*
X124241078Y-89929182D01*
X124239535Y-89938929D01*
X124221737Y-90165070D01*
X118618500Y-90165070D01*
X118618500Y-88940797D01*
X124865001Y-88940797D01*
X124868785Y-88949575D01*
X125717188Y-89797978D01*
X125731132Y-89805592D01*
X125732965Y-89805461D01*
X125739580Y-89801210D01*
X126588172Y-88952618D01*
X126594627Y-88940797D01*
X133755001Y-88940797D01*
X133758785Y-88949575D01*
X134607188Y-89797978D01*
X134621132Y-89805592D01*
X134622965Y-89805461D01*
X134629580Y-89801210D01*
X135478172Y-88952618D01*
X135484627Y-88940797D01*
X146455001Y-88940797D01*
X146458785Y-88949575D01*
X147307188Y-89797978D01*
X147321132Y-89805592D01*
X147322965Y-89805461D01*
X147329580Y-89801210D01*
X148178172Y-88952618D01*
X148184932Y-88940238D01*
X148179205Y-88932588D01*
X148009133Y-88828368D01*
X148000339Y-88823887D01*
X147790772Y-88737082D01*
X147781387Y-88734033D01*
X147560818Y-88681078D01*
X147551071Y-88679535D01*
X147324930Y-88661737D01*
X147315070Y-88661737D01*
X147088929Y-88679535D01*
X147079182Y-88681078D01*
X146858613Y-88734033D01*
X146849228Y-88737082D01*
X146639661Y-88823887D01*
X146630867Y-88828368D01*
X146464461Y-88930341D01*
X146455001Y-88940797D01*
X135484627Y-88940797D01*
X135484932Y-88940238D01*
X135479205Y-88932588D01*
X135309133Y-88828368D01*
X135300339Y-88823887D01*
X135090772Y-88737082D01*
X135081387Y-88734033D01*
X134860818Y-88681078D01*
X134851071Y-88679535D01*
X134624930Y-88661737D01*
X134615070Y-88661737D01*
X134388929Y-88679535D01*
X134379182Y-88681078D01*
X134158613Y-88734033D01*
X134149228Y-88737082D01*
X133939661Y-88823887D01*
X133930867Y-88828368D01*
X133764461Y-88930341D01*
X133755001Y-88940797D01*
X126594627Y-88940797D01*
X126594932Y-88940238D01*
X126589205Y-88932588D01*
X126419133Y-88828368D01*
X126410339Y-88823887D01*
X126200772Y-88737082D01*
X126191387Y-88734033D01*
X125970818Y-88681078D01*
X125961071Y-88679535D01*
X125734930Y-88661737D01*
X125725070Y-88661737D01*
X125498929Y-88679535D01*
X125489182Y-88681078D01*
X125268613Y-88734033D01*
X125259228Y-88737082D01*
X125049661Y-88823887D01*
X125040867Y-88828368D01*
X124874461Y-88930341D01*
X124865001Y-88940797D01*
X118618500Y-88940797D01*
X118618500Y-86975546D01*
X118638502Y-86907425D01*
X118648649Y-86893762D01*
X118649151Y-86893175D01*
X118708581Y-86854338D01*
X118779575Y-86853797D01*
X118835987Y-86890032D01*
X118836886Y-86889133D01*
X118840389Y-86892636D01*
X118843602Y-86896398D01*
X118847364Y-86899611D01*
X118936273Y-86975546D01*
X119041271Y-87065223D01*
X119262916Y-87201048D01*
X119267486Y-87202941D01*
X119267488Y-87202942D01*
X119498507Y-87298633D01*
X119503080Y-87300527D01*
X119589543Y-87321285D01*
X119751037Y-87360056D01*
X119751043Y-87360057D01*
X119755850Y-87361211D01*
X120015000Y-87381607D01*
X120274150Y-87361211D01*
X120278957Y-87360057D01*
X120278963Y-87360056D01*
X120440457Y-87321285D01*
X120526920Y-87300527D01*
X120531493Y-87298633D01*
X120762512Y-87202942D01*
X120762514Y-87202941D01*
X120767084Y-87201048D01*
X120988729Y-87065223D01*
X121093728Y-86975546D01*
X121182636Y-86899611D01*
X121186398Y-86896398D01*
X121323330Y-86736071D01*
X121352005Y-86702497D01*
X121352006Y-86702496D01*
X121355223Y-86698729D01*
X121359635Y-86691530D01*
X121952830Y-86691530D01*
X121962710Y-86704017D01*
X122002472Y-86730585D01*
X122012575Y-86736071D01*
X122194973Y-86814435D01*
X122205916Y-86817990D01*
X122399533Y-86861802D01*
X122410942Y-86863304D01*
X122609308Y-86871097D01*
X122620790Y-86870495D01*
X122817250Y-86842011D01*
X122828445Y-86839323D01*
X123016424Y-86775512D01*
X123026931Y-86770834D01*
X123148745Y-86702614D01*
X123158610Y-86692536D01*
X123158222Y-86691530D01*
X137192830Y-86691530D01*
X137202710Y-86704017D01*
X137242472Y-86730585D01*
X137252575Y-86736071D01*
X137434973Y-86814435D01*
X137445916Y-86817990D01*
X137639533Y-86861802D01*
X137650942Y-86863304D01*
X137849308Y-86871097D01*
X137860790Y-86870495D01*
X138057250Y-86842011D01*
X138068445Y-86839323D01*
X138256424Y-86775512D01*
X138266931Y-86770834D01*
X138388745Y-86702614D01*
X138398610Y-86692536D01*
X138395654Y-86684864D01*
X137807812Y-86097022D01*
X137793868Y-86089408D01*
X137792035Y-86089539D01*
X137785420Y-86093790D01*
X137199027Y-86680183D01*
X137192830Y-86691530D01*
X123158222Y-86691530D01*
X123155654Y-86684864D01*
X122567812Y-86097022D01*
X122553868Y-86089408D01*
X122552035Y-86089539D01*
X122545420Y-86093790D01*
X121959027Y-86680183D01*
X121952830Y-86691530D01*
X121359635Y-86691530D01*
X121491048Y-86477084D01*
X121525908Y-86392925D01*
X121570455Y-86337645D01*
X121583451Y-86329740D01*
X121599564Y-86321226D01*
X122182978Y-85737812D01*
X122189356Y-85726132D01*
X122919408Y-85726132D01*
X122919539Y-85727965D01*
X122923790Y-85734580D01*
X123510950Y-86321740D01*
X123523330Y-86328500D01*
X123529910Y-86323574D01*
X123600834Y-86196931D01*
X123605512Y-86186424D01*
X123669323Y-85998445D01*
X123672011Y-85987250D01*
X123700791Y-85788750D01*
X123701421Y-85781367D01*
X123702800Y-85728704D01*
X123702557Y-85721305D01*
X123700665Y-85700718D01*
X136647874Y-85700718D01*
X136660858Y-85898803D01*
X136662659Y-85910173D01*
X136711523Y-86102576D01*
X136715364Y-86113423D01*
X136798475Y-86293705D01*
X136804223Y-86303661D01*
X136815675Y-86319867D01*
X136826263Y-86328254D01*
X136839564Y-86321226D01*
X137422978Y-85737812D01*
X137429356Y-85726132D01*
X138159408Y-85726132D01*
X138159539Y-85727965D01*
X138163790Y-85734580D01*
X138750951Y-86321741D01*
X138768354Y-86331244D01*
X138818556Y-86381446D01*
X138824377Y-86393613D01*
X138858952Y-86477084D01*
X138994777Y-86698729D01*
X138997994Y-86702496D01*
X138997995Y-86702497D01*
X139026670Y-86736071D01*
X139163602Y-86896398D01*
X139167364Y-86899611D01*
X139256273Y-86975546D01*
X139361271Y-87065223D01*
X139582916Y-87201048D01*
X139587486Y-87202941D01*
X139587488Y-87202942D01*
X139818507Y-87298633D01*
X139823080Y-87300527D01*
X139909543Y-87321285D01*
X140071037Y-87360056D01*
X140071043Y-87360057D01*
X140075850Y-87361211D01*
X140335000Y-87381607D01*
X140594150Y-87361211D01*
X140598957Y-87360057D01*
X140598963Y-87360056D01*
X140760457Y-87321285D01*
X140846920Y-87300527D01*
X140851493Y-87298633D01*
X141082512Y-87202942D01*
X141082514Y-87202941D01*
X141087084Y-87201048D01*
X141308729Y-87065223D01*
X141413728Y-86975546D01*
X141502636Y-86899611D01*
X141506398Y-86896398D01*
X141509611Y-86892636D01*
X141513114Y-86889133D01*
X141513982Y-86890001D01*
X141568637Y-86854321D01*
X141639631Y-86853813D01*
X141695988Y-86890031D01*
X141696886Y-86889133D01*
X141700389Y-86892636D01*
X141703602Y-86896398D01*
X141707364Y-86899611D01*
X141796273Y-86975546D01*
X141901271Y-87065223D01*
X142122916Y-87201048D01*
X142127486Y-87202941D01*
X142127488Y-87202942D01*
X142358507Y-87298633D01*
X142363080Y-87300527D01*
X142449543Y-87321285D01*
X142611037Y-87360056D01*
X142611043Y-87360057D01*
X142615850Y-87361211D01*
X142875000Y-87381607D01*
X143134150Y-87361211D01*
X143138957Y-87360057D01*
X143138963Y-87360056D01*
X143300457Y-87321285D01*
X143386920Y-87300527D01*
X143391493Y-87298633D01*
X143622512Y-87202942D01*
X143622514Y-87202941D01*
X143627084Y-87201048D01*
X143848729Y-87065223D01*
X143953728Y-86975546D01*
X144042636Y-86899611D01*
X144046398Y-86896398D01*
X144183330Y-86736071D01*
X144212005Y-86702497D01*
X144212006Y-86702496D01*
X144215223Y-86698729D01*
X144219635Y-86691530D01*
X144812830Y-86691530D01*
X144822710Y-86704017D01*
X144862472Y-86730585D01*
X144872575Y-86736071D01*
X145054973Y-86814435D01*
X145065916Y-86817990D01*
X145259533Y-86861802D01*
X145270942Y-86863304D01*
X145469308Y-86871097D01*
X145480790Y-86870495D01*
X145677250Y-86842011D01*
X145688445Y-86839323D01*
X145876424Y-86775512D01*
X145886931Y-86770834D01*
X146008745Y-86702614D01*
X146018610Y-86692536D01*
X146015654Y-86684864D01*
X145427812Y-86097022D01*
X145413868Y-86089408D01*
X145412035Y-86089539D01*
X145405420Y-86093790D01*
X144819027Y-86680183D01*
X144812830Y-86691530D01*
X144219635Y-86691530D01*
X144351048Y-86477084D01*
X144385908Y-86392925D01*
X144430455Y-86337645D01*
X144443451Y-86329740D01*
X144459564Y-86321226D01*
X145042978Y-85737812D01*
X145049356Y-85726132D01*
X145779408Y-85726132D01*
X145779539Y-85727965D01*
X145783790Y-85734580D01*
X146370950Y-86321740D01*
X146383330Y-86328500D01*
X146389910Y-86323574D01*
X146460834Y-86196931D01*
X146465512Y-86186424D01*
X146529323Y-85998445D01*
X146532011Y-85987250D01*
X146560791Y-85788750D01*
X146561421Y-85781367D01*
X146562800Y-85728704D01*
X146562557Y-85721305D01*
X146544204Y-85521566D01*
X146542107Y-85510251D01*
X146488222Y-85319190D01*
X146484100Y-85308451D01*
X146396299Y-85130409D01*
X146394192Y-85126970D01*
X146384876Y-85119980D01*
X146372459Y-85126751D01*
X145787022Y-85712188D01*
X145779408Y-85726132D01*
X145049356Y-85726132D01*
X145050592Y-85723868D01*
X145050461Y-85722035D01*
X145046210Y-85715420D01*
X144457625Y-85126835D01*
X144441299Y-85117920D01*
X144391097Y-85067717D01*
X144385276Y-85055550D01*
X144352944Y-84977492D01*
X144352941Y-84977486D01*
X144351048Y-84972916D01*
X144219432Y-84758139D01*
X144812251Y-84758139D01*
X144815738Y-84766528D01*
X145402188Y-85352978D01*
X145416132Y-85360592D01*
X145417965Y-85360461D01*
X145424580Y-85356210D01*
X146010657Y-84770133D01*
X146017417Y-84757753D01*
X146011387Y-84749698D01*
X145941020Y-84705299D01*
X145930769Y-84700076D01*
X145746389Y-84626516D01*
X145735352Y-84623247D01*
X145540654Y-84584518D01*
X145529210Y-84583315D01*
X145330719Y-84580718D01*
X145319239Y-84581621D01*
X145123599Y-84615238D01*
X145112479Y-84618218D01*
X144926234Y-84686927D01*
X144915856Y-84691877D01*
X144821849Y-84747806D01*
X144812251Y-84758139D01*
X144219432Y-84758139D01*
X144215223Y-84751271D01*
X144171499Y-84700076D01*
X144049611Y-84557364D01*
X144046398Y-84553602D01*
X143973680Y-84491495D01*
X143852497Y-84387995D01*
X143852496Y-84387994D01*
X143848729Y-84384777D01*
X143627084Y-84248952D01*
X143622514Y-84247059D01*
X143622512Y-84247058D01*
X143391493Y-84151367D01*
X143391491Y-84151366D01*
X143386920Y-84149473D01*
X143300457Y-84128715D01*
X143138963Y-84089944D01*
X143138957Y-84089943D01*
X143134150Y-84088789D01*
X142875000Y-84068393D01*
X142615850Y-84088789D01*
X142611043Y-84089943D01*
X142611037Y-84089944D01*
X142449543Y-84128715D01*
X142363080Y-84149473D01*
X142358509Y-84151366D01*
X142358507Y-84151367D01*
X142127488Y-84247058D01*
X142127486Y-84247059D01*
X142122916Y-84248952D01*
X141901271Y-84384777D01*
X141897504Y-84387994D01*
X141897503Y-84387995D01*
X141776320Y-84491495D01*
X141703602Y-84553602D01*
X141700389Y-84557364D01*
X141696886Y-84560867D01*
X141696018Y-84559999D01*
X141641363Y-84595679D01*
X141570369Y-84596187D01*
X141514012Y-84559969D01*
X141513114Y-84560867D01*
X141509611Y-84557364D01*
X141506398Y-84553602D01*
X141433680Y-84491495D01*
X141312497Y-84387995D01*
X141312496Y-84387994D01*
X141308729Y-84384777D01*
X141087084Y-84248952D01*
X141082514Y-84247059D01*
X141082512Y-84247058D01*
X140851493Y-84151367D01*
X140851491Y-84151366D01*
X140846920Y-84149473D01*
X140760457Y-84128715D01*
X140598963Y-84089944D01*
X140598957Y-84089943D01*
X140594150Y-84088789D01*
X140335000Y-84068393D01*
X140075850Y-84088789D01*
X140071043Y-84089943D01*
X140071037Y-84089944D01*
X139909543Y-84128715D01*
X139823080Y-84149473D01*
X139818509Y-84151366D01*
X139818507Y-84151367D01*
X139587488Y-84247058D01*
X139587486Y-84247059D01*
X139582916Y-84248952D01*
X139361271Y-84384777D01*
X139357504Y-84387994D01*
X139357503Y-84387995D01*
X139236320Y-84491495D01*
X139163602Y-84553602D01*
X139160389Y-84557364D01*
X139038502Y-84700076D01*
X138994777Y-84751271D01*
X138858952Y-84972916D01*
X138857059Y-84977486D01*
X138857058Y-84977488D01*
X138824737Y-85055518D01*
X138780189Y-85110799D01*
X138768651Y-85117922D01*
X138752458Y-85126752D01*
X138167022Y-85712188D01*
X138159408Y-85726132D01*
X137429356Y-85726132D01*
X137430592Y-85723868D01*
X137430461Y-85722035D01*
X137426210Y-85715420D01*
X136837626Y-85126836D01*
X136825246Y-85120076D01*
X136819280Y-85124542D01*
X136737173Y-85280602D01*
X136732768Y-85291236D01*
X136673900Y-85480822D01*
X136671508Y-85492076D01*
X136648175Y-85689217D01*
X136647874Y-85700718D01*
X123700665Y-85700718D01*
X123684204Y-85521566D01*
X123682107Y-85510251D01*
X123628222Y-85319190D01*
X123624100Y-85308451D01*
X123536299Y-85130409D01*
X123534192Y-85126970D01*
X123524876Y-85119980D01*
X123512459Y-85126751D01*
X122927022Y-85712188D01*
X122919408Y-85726132D01*
X122189356Y-85726132D01*
X122190592Y-85723868D01*
X122190461Y-85722035D01*
X122186210Y-85715420D01*
X121597625Y-85126835D01*
X121581299Y-85117920D01*
X121531097Y-85067717D01*
X121525276Y-85055550D01*
X121492944Y-84977492D01*
X121492941Y-84977486D01*
X121491048Y-84972916D01*
X121359432Y-84758139D01*
X121952251Y-84758139D01*
X121955738Y-84766528D01*
X122542188Y-85352978D01*
X122556132Y-85360592D01*
X122557965Y-85360461D01*
X122564580Y-85356210D01*
X123150657Y-84770133D01*
X123157206Y-84758139D01*
X137192251Y-84758139D01*
X137195738Y-84766528D01*
X137782188Y-85352978D01*
X137796132Y-85360592D01*
X137797965Y-85360461D01*
X137804580Y-85356210D01*
X138390657Y-84770133D01*
X138397417Y-84757753D01*
X138391387Y-84749698D01*
X138321020Y-84705299D01*
X138310769Y-84700076D01*
X138126389Y-84626516D01*
X138115352Y-84623247D01*
X137920654Y-84584518D01*
X137909210Y-84583315D01*
X137710719Y-84580718D01*
X137699239Y-84581621D01*
X137503599Y-84615238D01*
X137492479Y-84618218D01*
X137306234Y-84686927D01*
X137295856Y-84691877D01*
X137201849Y-84747806D01*
X137192251Y-84758139D01*
X123157206Y-84758139D01*
X123157417Y-84757753D01*
X123151387Y-84749698D01*
X123081020Y-84705299D01*
X123070769Y-84700076D01*
X122886389Y-84626516D01*
X122875352Y-84623247D01*
X122680654Y-84584518D01*
X122669210Y-84583315D01*
X122470719Y-84580718D01*
X122459239Y-84581621D01*
X122263599Y-84615238D01*
X122252479Y-84618218D01*
X122066234Y-84686927D01*
X122055856Y-84691877D01*
X121961849Y-84747806D01*
X121952251Y-84758139D01*
X121359432Y-84758139D01*
X121355223Y-84751271D01*
X121315959Y-84705299D01*
X121188689Y-84556284D01*
X121159658Y-84491495D01*
X121158500Y-84474454D01*
X121158500Y-82509762D01*
X124865068Y-82509762D01*
X124870795Y-82517412D01*
X125040867Y-82621632D01*
X125049661Y-82626113D01*
X125259228Y-82712918D01*
X125268613Y-82715967D01*
X125489182Y-82768922D01*
X125498929Y-82770465D01*
X125725070Y-82788263D01*
X125734930Y-82788263D01*
X125961071Y-82770465D01*
X125970818Y-82768922D01*
X126191387Y-82715967D01*
X126200772Y-82712918D01*
X126410339Y-82626113D01*
X126419133Y-82621632D01*
X126585539Y-82519659D01*
X126594493Y-82509762D01*
X133755068Y-82509762D01*
X133760795Y-82517412D01*
X133930867Y-82621632D01*
X133939661Y-82626113D01*
X134149228Y-82712918D01*
X134158613Y-82715967D01*
X134379182Y-82768922D01*
X134388929Y-82770465D01*
X134615070Y-82788263D01*
X134624930Y-82788263D01*
X134851071Y-82770465D01*
X134860818Y-82768922D01*
X135081387Y-82715967D01*
X135090772Y-82712918D01*
X135300339Y-82626113D01*
X135309133Y-82621632D01*
X135475539Y-82519659D01*
X135484493Y-82509762D01*
X146455068Y-82509762D01*
X146460795Y-82517412D01*
X146630867Y-82621632D01*
X146639661Y-82626113D01*
X146849228Y-82712918D01*
X146858613Y-82715967D01*
X147079182Y-82768922D01*
X147088929Y-82770465D01*
X147315070Y-82788263D01*
X147324930Y-82788263D01*
X147551071Y-82770465D01*
X147560818Y-82768922D01*
X147781387Y-82715967D01*
X147790772Y-82712918D01*
X148000339Y-82626113D01*
X148009133Y-82621632D01*
X148175539Y-82519659D01*
X148184999Y-82509203D01*
X148181215Y-82500425D01*
X147332812Y-81652022D01*
X147318868Y-81644408D01*
X147317035Y-81644539D01*
X147310420Y-81648790D01*
X146461828Y-82497382D01*
X146455068Y-82509762D01*
X135484493Y-82509762D01*
X135484999Y-82509203D01*
X135481215Y-82500425D01*
X134632812Y-81652022D01*
X134618868Y-81644408D01*
X134617035Y-81644539D01*
X134610420Y-81648790D01*
X133761828Y-82497382D01*
X133755068Y-82509762D01*
X126594493Y-82509762D01*
X126594999Y-82509203D01*
X126591215Y-82500425D01*
X125742812Y-81652022D01*
X125728868Y-81644408D01*
X125727035Y-81644539D01*
X125720420Y-81648790D01*
X124871828Y-82497382D01*
X124865068Y-82509762D01*
X121158500Y-82509762D01*
X121158500Y-81275070D01*
X124221737Y-81275070D01*
X124221737Y-81284930D01*
X124239535Y-81511071D01*
X124241078Y-81520818D01*
X124294033Y-81741387D01*
X124297082Y-81750772D01*
X124383887Y-81960339D01*
X124388368Y-81969133D01*
X124490341Y-82135539D01*
X124500797Y-82144999D01*
X124509575Y-82141215D01*
X125357978Y-81292812D01*
X125364356Y-81281132D01*
X126094408Y-81281132D01*
X126094539Y-81282965D01*
X126098790Y-81289580D01*
X126947382Y-82138172D01*
X126959762Y-82144932D01*
X126967412Y-82139205D01*
X127071632Y-81969133D01*
X127076113Y-81960339D01*
X127162918Y-81750772D01*
X127165967Y-81741387D01*
X127218922Y-81520818D01*
X127220465Y-81511071D01*
X127238263Y-81284930D01*
X127238263Y-81275070D01*
X133111737Y-81275070D01*
X133111737Y-81284930D01*
X133129535Y-81511071D01*
X133131078Y-81520818D01*
X133184033Y-81741387D01*
X133187082Y-81750772D01*
X133273887Y-81960339D01*
X133278368Y-81969133D01*
X133380341Y-82135539D01*
X133390797Y-82144999D01*
X133399575Y-82141215D01*
X134247978Y-81292812D01*
X134254356Y-81281132D01*
X134984408Y-81281132D01*
X134984539Y-81282965D01*
X134988790Y-81289580D01*
X135837382Y-82138172D01*
X135849762Y-82144932D01*
X135857412Y-82139205D01*
X135961632Y-81969133D01*
X135966113Y-81960339D01*
X136052918Y-81750772D01*
X136055967Y-81741387D01*
X136108922Y-81520818D01*
X136110465Y-81511071D01*
X136128263Y-81284930D01*
X136128263Y-81275070D01*
X145811737Y-81275070D01*
X145811737Y-81284930D01*
X145829535Y-81511071D01*
X145831078Y-81520818D01*
X145884033Y-81741387D01*
X145887082Y-81750772D01*
X145973887Y-81960339D01*
X145978368Y-81969133D01*
X146080341Y-82135539D01*
X146090797Y-82144999D01*
X146099575Y-82141215D01*
X146947978Y-81292812D01*
X146954356Y-81281132D01*
X147684408Y-81281132D01*
X147684539Y-81282965D01*
X147688790Y-81289580D01*
X148537382Y-82138172D01*
X148549762Y-82144932D01*
X148557412Y-82139205D01*
X148661632Y-81969133D01*
X148666113Y-81960339D01*
X148752918Y-81750772D01*
X148755967Y-81741387D01*
X148808922Y-81520818D01*
X148810465Y-81511071D01*
X148828263Y-81284930D01*
X148828263Y-81275070D01*
X148810465Y-81048929D01*
X148808922Y-81039182D01*
X148755967Y-80818613D01*
X148752918Y-80809228D01*
X148666113Y-80599661D01*
X148661632Y-80590867D01*
X148559659Y-80424461D01*
X148549203Y-80415001D01*
X148540425Y-80418785D01*
X147692022Y-81267188D01*
X147684408Y-81281132D01*
X146954356Y-81281132D01*
X146955592Y-81278868D01*
X146955461Y-81277035D01*
X146951210Y-81270420D01*
X146102618Y-80421828D01*
X146090238Y-80415068D01*
X146082588Y-80420795D01*
X145978368Y-80590867D01*
X145973887Y-80599661D01*
X145887082Y-80809228D01*
X145884033Y-80818613D01*
X145831078Y-81039182D01*
X145829535Y-81048929D01*
X145811737Y-81275070D01*
X136128263Y-81275070D01*
X136110465Y-81048929D01*
X136108922Y-81039182D01*
X136055967Y-80818613D01*
X136052918Y-80809228D01*
X135966113Y-80599661D01*
X135961632Y-80590867D01*
X135859659Y-80424461D01*
X135849203Y-80415001D01*
X135840425Y-80418785D01*
X134992022Y-81267188D01*
X134984408Y-81281132D01*
X134254356Y-81281132D01*
X134255592Y-81278868D01*
X134255461Y-81277035D01*
X134251210Y-81270420D01*
X133402618Y-80421828D01*
X133390238Y-80415068D01*
X133382588Y-80420795D01*
X133278368Y-80590867D01*
X133273887Y-80599661D01*
X133187082Y-80809228D01*
X133184033Y-80818613D01*
X133131078Y-81039182D01*
X133129535Y-81048929D01*
X133111737Y-81275070D01*
X127238263Y-81275070D01*
X127220465Y-81048929D01*
X127218922Y-81039182D01*
X127165967Y-80818613D01*
X127162918Y-80809228D01*
X127076113Y-80599661D01*
X127071632Y-80590867D01*
X126969659Y-80424461D01*
X126959203Y-80415001D01*
X126950425Y-80418785D01*
X126102022Y-81267188D01*
X126094408Y-81281132D01*
X125364356Y-81281132D01*
X125365592Y-81278868D01*
X125365461Y-81277035D01*
X125361210Y-81270420D01*
X124512618Y-80421828D01*
X124500238Y-80415068D01*
X124492588Y-80420795D01*
X124388368Y-80590867D01*
X124383887Y-80599661D01*
X124297082Y-80809228D01*
X124294033Y-80818613D01*
X124241078Y-81039182D01*
X124239535Y-81048929D01*
X124221737Y-81275070D01*
X121158500Y-81275070D01*
X121158500Y-80050797D01*
X124865001Y-80050797D01*
X124868785Y-80059575D01*
X125717188Y-80907978D01*
X125731132Y-80915592D01*
X125732965Y-80915461D01*
X125739580Y-80911210D01*
X126588172Y-80062618D01*
X126594627Y-80050797D01*
X133755001Y-80050797D01*
X133758785Y-80059575D01*
X134607188Y-80907978D01*
X134621132Y-80915592D01*
X134622965Y-80915461D01*
X134629580Y-80911210D01*
X135478172Y-80062618D01*
X135484627Y-80050797D01*
X146455001Y-80050797D01*
X146458785Y-80059575D01*
X147307188Y-80907978D01*
X147321132Y-80915592D01*
X147322965Y-80915461D01*
X147329580Y-80911210D01*
X148178172Y-80062618D01*
X148184932Y-80050238D01*
X148179205Y-80042588D01*
X148009133Y-79938368D01*
X148000339Y-79933887D01*
X147790772Y-79847082D01*
X147781387Y-79844033D01*
X147560818Y-79791078D01*
X147551071Y-79789535D01*
X147324930Y-79771737D01*
X147315070Y-79771737D01*
X147088929Y-79789535D01*
X147079182Y-79791078D01*
X146858613Y-79844033D01*
X146849228Y-79847082D01*
X146639661Y-79933887D01*
X146630867Y-79938368D01*
X146464461Y-80040341D01*
X146455001Y-80050797D01*
X135484627Y-80050797D01*
X135484932Y-80050238D01*
X135479205Y-80042588D01*
X135309133Y-79938368D01*
X135300339Y-79933887D01*
X135090772Y-79847082D01*
X135081387Y-79844033D01*
X134860818Y-79791078D01*
X134851071Y-79789535D01*
X134624930Y-79771737D01*
X134615070Y-79771737D01*
X134388929Y-79789535D01*
X134379182Y-79791078D01*
X134158613Y-79844033D01*
X134149228Y-79847082D01*
X133939661Y-79933887D01*
X133930867Y-79938368D01*
X133764461Y-80040341D01*
X133755001Y-80050797D01*
X126594627Y-80050797D01*
X126594932Y-80050238D01*
X126589205Y-80042588D01*
X126419133Y-79938368D01*
X126410339Y-79933887D01*
X126200772Y-79847082D01*
X126191387Y-79844033D01*
X125970818Y-79791078D01*
X125961071Y-79789535D01*
X125734930Y-79771737D01*
X125725070Y-79771737D01*
X125498929Y-79789535D01*
X125489182Y-79791078D01*
X125268613Y-79844033D01*
X125259228Y-79847082D01*
X125049661Y-79933887D01*
X125040867Y-79938368D01*
X124874461Y-80040341D01*
X124865001Y-80050797D01*
X121158500Y-80050797D01*
X121158500Y-75904151D01*
X121173769Y-75844029D01*
X121212064Y-75773499D01*
X121212065Y-75773497D01*
X121214114Y-75769723D01*
X121311108Y-75513036D01*
X121372368Y-75245560D01*
X121377592Y-75187035D01*
X121396541Y-74974710D01*
X121396761Y-74972245D01*
X121397203Y-74930000D01*
X121395763Y-74908876D01*
X138952908Y-74908876D01*
X138968703Y-75182823D01*
X138969528Y-75187030D01*
X138969529Y-75187035D01*
X139002007Y-75352575D01*
X139021532Y-75452091D01*
X139110415Y-75711698D01*
X139233709Y-75956840D01*
X139389131Y-76182981D01*
X139573807Y-76385937D01*
X139577096Y-76388687D01*
X139781026Y-76559200D01*
X139781031Y-76559204D01*
X139784318Y-76561952D01*
X139842404Y-76598389D01*
X140013129Y-76705485D01*
X140013133Y-76705487D01*
X140016769Y-76707768D01*
X140020679Y-76709533D01*
X140020680Y-76709534D01*
X140262947Y-76818922D01*
X140262951Y-76818924D01*
X140266859Y-76820688D01*
X140270979Y-76821908D01*
X140270978Y-76821908D01*
X140525848Y-76897404D01*
X140525852Y-76897405D01*
X140529961Y-76898622D01*
X140534195Y-76899270D01*
X140534200Y-76899271D01*
X140796963Y-76939479D01*
X140796965Y-76939479D01*
X140801205Y-76940128D01*
X140940906Y-76942323D01*
X141071281Y-76944371D01*
X141071287Y-76944371D01*
X141075572Y-76944438D01*
X141347986Y-76911473D01*
X141613406Y-76841841D01*
X141866919Y-76736832D01*
X141916657Y-76707768D01*
X142100128Y-76600556D01*
X142100130Y-76600554D01*
X142103836Y-76598389D01*
X142319772Y-76429074D01*
X142510732Y-76232019D01*
X142513265Y-76228571D01*
X142513269Y-76228566D01*
X142670643Y-76014326D01*
X142673181Y-76010871D01*
X142704598Y-75953009D01*
X142802064Y-75773499D01*
X142802065Y-75773497D01*
X142804114Y-75769723D01*
X142901108Y-75513036D01*
X142962368Y-75245560D01*
X142967592Y-75187035D01*
X142986541Y-74974710D01*
X142986761Y-74972245D01*
X142987203Y-74930000D01*
X142968540Y-74656234D01*
X142965094Y-74639591D01*
X142913764Y-74391736D01*
X142912894Y-74387534D01*
X142821297Y-74128872D01*
X142695443Y-73885034D01*
X142537661Y-73660533D01*
X142350870Y-73459522D01*
X142138528Y-73285722D01*
X141904562Y-73142347D01*
X141878652Y-73130973D01*
X141657235Y-73033778D01*
X141653303Y-73032052D01*
X141389400Y-72956878D01*
X141385158Y-72956274D01*
X141385152Y-72956273D01*
X141121987Y-72918819D01*
X141117736Y-72918214D01*
X140973155Y-72917457D01*
X140847625Y-72916799D01*
X140847618Y-72916799D01*
X140843339Y-72916777D01*
X140839095Y-72917336D01*
X140839091Y-72917336D01*
X140719293Y-72933108D01*
X140571285Y-72952594D01*
X140567145Y-72953727D01*
X140567143Y-72953727D01*
X140555625Y-72956878D01*
X140306609Y-73025001D01*
X140302661Y-73026685D01*
X140058161Y-73130973D01*
X140058157Y-73130975D01*
X140054209Y-73132659D01*
X139935335Y-73203803D01*
X139822437Y-73271371D01*
X139822433Y-73271374D01*
X139818755Y-73273575D01*
X139815412Y-73276253D01*
X139815408Y-73276256D01*
X139803593Y-73285722D01*
X139604604Y-73445143D01*
X139601660Y-73448245D01*
X139601656Y-73448249D01*
X139587976Y-73462665D01*
X139415718Y-73644186D01*
X139255594Y-73867023D01*
X139127193Y-74109530D01*
X139032893Y-74367218D01*
X138974437Y-74635321D01*
X138952908Y-74908876D01*
X121395763Y-74908876D01*
X121378540Y-74656234D01*
X121375094Y-74639591D01*
X121323764Y-74391736D01*
X121322894Y-74387534D01*
X121231297Y-74128872D01*
X121105443Y-73885034D01*
X120947661Y-73660533D01*
X120760870Y-73459522D01*
X120548528Y-73285722D01*
X120314562Y-73142347D01*
X120288652Y-73130973D01*
X120067235Y-73033778D01*
X120063303Y-73032052D01*
X119799400Y-72956878D01*
X119795158Y-72956274D01*
X119795152Y-72956273D01*
X119531987Y-72918819D01*
X119527736Y-72918214D01*
X119383155Y-72917457D01*
X119257625Y-72916799D01*
X119257618Y-72916799D01*
X119253339Y-72916777D01*
X119249095Y-72917336D01*
X119249091Y-72917336D01*
X119129293Y-72933108D01*
X118981285Y-72952594D01*
X118977145Y-72953727D01*
X118977143Y-72953727D01*
X118965625Y-72956878D01*
X118716609Y-73025001D01*
X118712661Y-73026685D01*
X118468161Y-73130973D01*
X118468157Y-73130975D01*
X118464209Y-73132659D01*
X118345335Y-73203803D01*
X118232437Y-73271371D01*
X118232433Y-73271374D01*
X118228755Y-73273575D01*
X118225412Y-73276253D01*
X118225408Y-73276256D01*
X118213593Y-73285722D01*
X118014604Y-73445143D01*
X118011660Y-73448245D01*
X118011656Y-73448249D01*
X117997976Y-73462665D01*
X117825718Y-73644186D01*
X117665594Y-73867023D01*
X117537193Y-74109530D01*
X117442893Y-74367218D01*
X117384437Y-74635321D01*
X117362908Y-74908876D01*
X117378703Y-75182823D01*
X117379528Y-75187030D01*
X117379529Y-75187035D01*
X117412007Y-75352575D01*
X117431532Y-75452091D01*
X117520415Y-75711698D01*
X117643709Y-75956840D01*
X117799131Y-76182981D01*
X117983807Y-76385937D01*
X117987096Y-76388687D01*
X118191026Y-76559200D01*
X118191031Y-76559204D01*
X118194318Y-76561952D01*
X118252404Y-76598389D01*
X118423129Y-76705485D01*
X118423133Y-76705487D01*
X118426769Y-76707768D01*
X118430679Y-76709533D01*
X118430680Y-76709534D01*
X118672947Y-76818922D01*
X118672951Y-76818924D01*
X118676859Y-76820688D01*
X118680979Y-76821908D01*
X118680978Y-76821908D01*
X118781286Y-76851621D01*
X118840921Y-76890147D01*
X118870260Y-76954798D01*
X118871500Y-76972432D01*
X118871500Y-84474454D01*
X118851498Y-84542575D01*
X118841353Y-84556235D01*
X118840849Y-84556825D01*
X118781419Y-84595662D01*
X118710425Y-84596203D01*
X118654013Y-84559968D01*
X118653114Y-84560867D01*
X118649611Y-84557364D01*
X118646398Y-84553602D01*
X118573680Y-84491495D01*
X118452497Y-84387995D01*
X118452496Y-84387994D01*
X118448729Y-84384777D01*
X118227084Y-84248952D01*
X118222514Y-84247059D01*
X118222512Y-84247058D01*
X117991493Y-84151367D01*
X117991491Y-84151366D01*
X117986920Y-84149473D01*
X117900457Y-84128715D01*
X117738963Y-84089944D01*
X117738957Y-84089943D01*
X117734150Y-84088789D01*
X117475000Y-84068393D01*
X117215850Y-84088789D01*
X117211043Y-84089943D01*
X117211037Y-84089944D01*
X117049543Y-84128715D01*
X116963080Y-84149473D01*
X116958509Y-84151366D01*
X116958507Y-84151367D01*
X116727488Y-84247058D01*
X116727486Y-84247059D01*
X116722916Y-84248952D01*
X116501271Y-84384777D01*
X116497504Y-84387994D01*
X116497503Y-84387995D01*
X116376320Y-84491495D01*
X116303602Y-84553602D01*
X116300389Y-84557364D01*
X116178502Y-84700076D01*
X116134777Y-84751271D01*
X115998952Y-84972916D01*
X115997059Y-84977486D01*
X115997058Y-84977488D01*
X115964737Y-85055518D01*
X115920189Y-85110799D01*
X115908651Y-85117922D01*
X115892458Y-85126752D01*
X115307022Y-85712188D01*
X115299408Y-85726132D01*
X114569356Y-85726132D01*
X114570592Y-85723868D01*
X114570461Y-85722035D01*
X114566210Y-85715420D01*
X113977626Y-85126836D01*
X113965246Y-85120076D01*
X113959280Y-85124542D01*
X113877173Y-85280602D01*
X113872768Y-85291236D01*
X113813900Y-85480822D01*
X113811508Y-85492076D01*
X113788175Y-85689217D01*
X113787874Y-85700718D01*
X103632000Y-85700718D01*
X103632000Y-84758139D01*
X114332251Y-84758139D01*
X114335738Y-84766528D01*
X114922188Y-85352978D01*
X114936132Y-85360592D01*
X114937965Y-85360461D01*
X114944580Y-85356210D01*
X115530657Y-84770133D01*
X115537417Y-84757753D01*
X115531387Y-84749698D01*
X115461020Y-84705299D01*
X115450769Y-84700076D01*
X115266389Y-84626516D01*
X115255352Y-84623247D01*
X115060654Y-84584518D01*
X115049210Y-84583315D01*
X114850719Y-84580718D01*
X114839239Y-84581621D01*
X114643599Y-84615238D01*
X114632479Y-84618218D01*
X114446234Y-84686927D01*
X114435856Y-84691877D01*
X114341849Y-84747806D01*
X114332251Y-84758139D01*
X103632000Y-84758139D01*
X103632000Y-82509762D01*
X112165068Y-82509762D01*
X112170795Y-82517412D01*
X112340867Y-82621632D01*
X112349661Y-82626113D01*
X112559228Y-82712918D01*
X112568613Y-82715967D01*
X112789182Y-82768922D01*
X112798929Y-82770465D01*
X113025070Y-82788263D01*
X113034930Y-82788263D01*
X113261071Y-82770465D01*
X113270818Y-82768922D01*
X113491387Y-82715967D01*
X113500772Y-82712918D01*
X113710339Y-82626113D01*
X113719133Y-82621632D01*
X113885539Y-82519659D01*
X113894999Y-82509203D01*
X113891215Y-82500425D01*
X113042812Y-81652022D01*
X113028868Y-81644408D01*
X113027035Y-81644539D01*
X113020420Y-81648790D01*
X112171828Y-82497382D01*
X112165068Y-82509762D01*
X103632000Y-82509762D01*
X103632000Y-81275070D01*
X111521737Y-81275070D01*
X111521737Y-81284930D01*
X111539535Y-81511071D01*
X111541078Y-81520818D01*
X111594033Y-81741387D01*
X111597082Y-81750772D01*
X111683887Y-81960339D01*
X111688368Y-81969133D01*
X111790341Y-82135539D01*
X111800797Y-82144999D01*
X111809575Y-82141215D01*
X112657978Y-81292812D01*
X112664356Y-81281132D01*
X113394408Y-81281132D01*
X113394539Y-81282965D01*
X113398790Y-81289580D01*
X114247382Y-82138172D01*
X114259762Y-82144932D01*
X114267412Y-82139205D01*
X114371632Y-81969133D01*
X114376113Y-81960339D01*
X114462918Y-81750772D01*
X114465967Y-81741387D01*
X114518922Y-81520818D01*
X114520465Y-81511071D01*
X114538263Y-81284930D01*
X114538263Y-81275070D01*
X114520465Y-81048929D01*
X114518922Y-81039182D01*
X114465967Y-80818613D01*
X114462918Y-80809228D01*
X114376113Y-80599661D01*
X114371632Y-80590867D01*
X114269659Y-80424461D01*
X114259203Y-80415001D01*
X114250425Y-80418785D01*
X113402022Y-81267188D01*
X113394408Y-81281132D01*
X112664356Y-81281132D01*
X112665592Y-81278868D01*
X112665461Y-81277035D01*
X112661210Y-81270420D01*
X111812618Y-80421828D01*
X111800238Y-80415068D01*
X111792588Y-80420795D01*
X111688368Y-80590867D01*
X111683887Y-80599661D01*
X111597082Y-80809228D01*
X111594033Y-80818613D01*
X111541078Y-81039182D01*
X111539535Y-81048929D01*
X111521737Y-81275070D01*
X103632000Y-81275070D01*
X103632000Y-80050797D01*
X112165001Y-80050797D01*
X112168785Y-80059575D01*
X113017188Y-80907978D01*
X113031132Y-80915592D01*
X113032965Y-80915461D01*
X113039580Y-80911210D01*
X113888172Y-80062618D01*
X113894932Y-80050238D01*
X113889205Y-80042588D01*
X113719133Y-79938368D01*
X113710339Y-79933887D01*
X113500772Y-79847082D01*
X113491387Y-79844033D01*
X113270818Y-79791078D01*
X113261071Y-79789535D01*
X113034930Y-79771737D01*
X113025070Y-79771737D01*
X112798929Y-79789535D01*
X112789182Y-79791078D01*
X112568613Y-79844033D01*
X112559228Y-79847082D01*
X112349661Y-79933887D01*
X112340867Y-79938368D01*
X112174461Y-80040341D01*
X112165001Y-80050797D01*
X103632000Y-80050797D01*
X103632000Y-69809762D01*
X112165068Y-69809762D01*
X112170795Y-69817412D01*
X112340867Y-69921632D01*
X112349661Y-69926113D01*
X112559228Y-70012918D01*
X112568613Y-70015967D01*
X112789182Y-70068922D01*
X112798929Y-70070465D01*
X113025070Y-70088263D01*
X113034930Y-70088263D01*
X113261071Y-70070465D01*
X113270818Y-70068922D01*
X113491387Y-70015967D01*
X113500772Y-70012918D01*
X113710339Y-69926113D01*
X113719133Y-69921632D01*
X113885539Y-69819659D01*
X113894493Y-69809762D01*
X124865068Y-69809762D01*
X124870795Y-69817412D01*
X125040867Y-69921632D01*
X125049661Y-69926113D01*
X125259228Y-70012918D01*
X125268613Y-70015967D01*
X125489182Y-70068922D01*
X125498929Y-70070465D01*
X125725070Y-70088263D01*
X125734930Y-70088263D01*
X125961071Y-70070465D01*
X125970818Y-70068922D01*
X126191387Y-70015967D01*
X126200772Y-70012918D01*
X126410339Y-69926113D01*
X126419133Y-69921632D01*
X126585539Y-69819659D01*
X126594493Y-69809762D01*
X133755068Y-69809762D01*
X133760795Y-69817412D01*
X133930867Y-69921632D01*
X133939661Y-69926113D01*
X134149228Y-70012918D01*
X134158613Y-70015967D01*
X134379182Y-70068922D01*
X134388929Y-70070465D01*
X134615070Y-70088263D01*
X134624930Y-70088263D01*
X134851071Y-70070465D01*
X134860818Y-70068922D01*
X135081387Y-70015967D01*
X135090772Y-70012918D01*
X135300339Y-69926113D01*
X135309133Y-69921632D01*
X135475539Y-69819659D01*
X135484493Y-69809762D01*
X146455068Y-69809762D01*
X146460795Y-69817412D01*
X146630867Y-69921632D01*
X146639661Y-69926113D01*
X146849228Y-70012918D01*
X146858613Y-70015967D01*
X147079182Y-70068922D01*
X147088929Y-70070465D01*
X147315070Y-70088263D01*
X147324930Y-70088263D01*
X147551071Y-70070465D01*
X147560818Y-70068922D01*
X147781387Y-70015967D01*
X147790772Y-70012918D01*
X148000339Y-69926113D01*
X148009133Y-69921632D01*
X148175539Y-69819659D01*
X148184999Y-69809203D01*
X148181215Y-69800425D01*
X147332812Y-68952022D01*
X147318868Y-68944408D01*
X147317035Y-68944539D01*
X147310420Y-68948790D01*
X146461828Y-69797382D01*
X146455068Y-69809762D01*
X135484493Y-69809762D01*
X135484999Y-69809203D01*
X135481215Y-69800425D01*
X134632812Y-68952022D01*
X134618868Y-68944408D01*
X134617035Y-68944539D01*
X134610420Y-68948790D01*
X133761828Y-69797382D01*
X133755068Y-69809762D01*
X126594493Y-69809762D01*
X126594999Y-69809203D01*
X126591215Y-69800425D01*
X125742812Y-68952022D01*
X125728868Y-68944408D01*
X125727035Y-68944539D01*
X125720420Y-68948790D01*
X124871828Y-69797382D01*
X124865068Y-69809762D01*
X113894493Y-69809762D01*
X113894999Y-69809203D01*
X113891215Y-69800425D01*
X113042812Y-68952022D01*
X113028868Y-68944408D01*
X113027035Y-68944539D01*
X113020420Y-68948790D01*
X112171828Y-69797382D01*
X112165068Y-69809762D01*
X103632000Y-69809762D01*
X103632000Y-68575070D01*
X111521737Y-68575070D01*
X111521737Y-68584930D01*
X111539535Y-68811071D01*
X111541078Y-68820818D01*
X111594033Y-69041387D01*
X111597082Y-69050772D01*
X111683887Y-69260339D01*
X111688368Y-69269133D01*
X111790341Y-69435539D01*
X111800797Y-69444999D01*
X111809575Y-69441215D01*
X112657978Y-68592812D01*
X112664356Y-68581132D01*
X113394408Y-68581132D01*
X113394539Y-68582965D01*
X113398790Y-68589580D01*
X114247382Y-69438172D01*
X114259762Y-69444932D01*
X114267412Y-69439205D01*
X114371632Y-69269133D01*
X114376113Y-69260339D01*
X114462918Y-69050772D01*
X114465967Y-69041387D01*
X114518922Y-68820818D01*
X114520465Y-68811071D01*
X114538263Y-68584930D01*
X114538263Y-68575070D01*
X124221737Y-68575070D01*
X124221737Y-68584930D01*
X124239535Y-68811071D01*
X124241078Y-68820818D01*
X124294033Y-69041387D01*
X124297082Y-69050772D01*
X124383887Y-69260339D01*
X124388368Y-69269133D01*
X124490341Y-69435539D01*
X124500797Y-69444999D01*
X124509575Y-69441215D01*
X125357978Y-68592812D01*
X125364356Y-68581132D01*
X126094408Y-68581132D01*
X126094539Y-68582965D01*
X126098790Y-68589580D01*
X126947382Y-69438172D01*
X126959762Y-69444932D01*
X126967412Y-69439205D01*
X127071632Y-69269133D01*
X127076113Y-69260339D01*
X127162918Y-69050772D01*
X127165967Y-69041387D01*
X127218922Y-68820818D01*
X127220465Y-68811071D01*
X127238263Y-68584930D01*
X127238263Y-68575070D01*
X133111737Y-68575070D01*
X133111737Y-68584930D01*
X133129535Y-68811071D01*
X133131078Y-68820818D01*
X133184033Y-69041387D01*
X133187082Y-69050772D01*
X133273887Y-69260339D01*
X133278368Y-69269133D01*
X133380341Y-69435539D01*
X133390797Y-69444999D01*
X133399575Y-69441215D01*
X134247978Y-68592812D01*
X134254356Y-68581132D01*
X134984408Y-68581132D01*
X134984539Y-68582965D01*
X134988790Y-68589580D01*
X135837382Y-69438172D01*
X135849762Y-69444932D01*
X135857412Y-69439205D01*
X135961632Y-69269133D01*
X135966113Y-69260339D01*
X136052918Y-69050772D01*
X136055967Y-69041387D01*
X136108922Y-68820818D01*
X136110465Y-68811071D01*
X136128263Y-68584930D01*
X136128263Y-68575070D01*
X145811737Y-68575070D01*
X145811737Y-68584930D01*
X145829535Y-68811071D01*
X145831078Y-68820818D01*
X145884033Y-69041387D01*
X145887082Y-69050772D01*
X145973887Y-69260339D01*
X145978368Y-69269133D01*
X146080341Y-69435539D01*
X146090797Y-69444999D01*
X146099575Y-69441215D01*
X146947978Y-68592812D01*
X146954356Y-68581132D01*
X147684408Y-68581132D01*
X147684539Y-68582965D01*
X147688790Y-68589580D01*
X148537382Y-69438172D01*
X148549762Y-69444932D01*
X148557412Y-69439205D01*
X148661632Y-69269133D01*
X148666113Y-69260339D01*
X148752918Y-69050772D01*
X148755967Y-69041387D01*
X148808922Y-68820818D01*
X148810465Y-68811071D01*
X148828263Y-68584930D01*
X148828263Y-68575070D01*
X148810465Y-68348929D01*
X148808922Y-68339182D01*
X148755967Y-68118613D01*
X148752918Y-68109228D01*
X148666113Y-67899661D01*
X148661632Y-67890867D01*
X148559659Y-67724461D01*
X148549203Y-67715001D01*
X148540425Y-67718785D01*
X147692022Y-68567188D01*
X147684408Y-68581132D01*
X146954356Y-68581132D01*
X146955592Y-68578868D01*
X146955461Y-68577035D01*
X146951210Y-68570420D01*
X146102618Y-67721828D01*
X146090238Y-67715068D01*
X146082588Y-67720795D01*
X145978368Y-67890867D01*
X145973887Y-67899661D01*
X145887082Y-68109228D01*
X145884033Y-68118613D01*
X145831078Y-68339182D01*
X145829535Y-68348929D01*
X145811737Y-68575070D01*
X136128263Y-68575070D01*
X136110465Y-68348929D01*
X136108922Y-68339182D01*
X136055967Y-68118613D01*
X136052918Y-68109228D01*
X135966113Y-67899661D01*
X135961632Y-67890867D01*
X135859659Y-67724461D01*
X135849203Y-67715001D01*
X135840425Y-67718785D01*
X134992022Y-68567188D01*
X134984408Y-68581132D01*
X134254356Y-68581132D01*
X134255592Y-68578868D01*
X134255461Y-68577035D01*
X134251210Y-68570420D01*
X133402618Y-67721828D01*
X133390238Y-67715068D01*
X133382588Y-67720795D01*
X133278368Y-67890867D01*
X133273887Y-67899661D01*
X133187082Y-68109228D01*
X133184033Y-68118613D01*
X133131078Y-68339182D01*
X133129535Y-68348929D01*
X133111737Y-68575070D01*
X127238263Y-68575070D01*
X127220465Y-68348929D01*
X127218922Y-68339182D01*
X127165967Y-68118613D01*
X127162918Y-68109228D01*
X127076113Y-67899661D01*
X127071632Y-67890867D01*
X126969659Y-67724461D01*
X126959203Y-67715001D01*
X126950425Y-67718785D01*
X126102022Y-68567188D01*
X126094408Y-68581132D01*
X125364356Y-68581132D01*
X125365592Y-68578868D01*
X125365461Y-68577035D01*
X125361210Y-68570420D01*
X124512618Y-67721828D01*
X124500238Y-67715068D01*
X124492588Y-67720795D01*
X124388368Y-67890867D01*
X124383887Y-67899661D01*
X124297082Y-68109228D01*
X124294033Y-68118613D01*
X124241078Y-68339182D01*
X124239535Y-68348929D01*
X124221737Y-68575070D01*
X114538263Y-68575070D01*
X114520465Y-68348929D01*
X114518922Y-68339182D01*
X114465967Y-68118613D01*
X114462918Y-68109228D01*
X114376113Y-67899661D01*
X114371632Y-67890867D01*
X114269659Y-67724461D01*
X114259203Y-67715001D01*
X114250425Y-67718785D01*
X113402022Y-68567188D01*
X113394408Y-68581132D01*
X112664356Y-68581132D01*
X112665592Y-68578868D01*
X112665461Y-68577035D01*
X112661210Y-68570420D01*
X111812618Y-67721828D01*
X111800238Y-67715068D01*
X111792588Y-67720795D01*
X111688368Y-67890867D01*
X111683887Y-67899661D01*
X111597082Y-68109228D01*
X111594033Y-68118613D01*
X111541078Y-68339182D01*
X111539535Y-68348929D01*
X111521737Y-68575070D01*
X103632000Y-68575070D01*
X103632000Y-67350797D01*
X112165001Y-67350797D01*
X112168785Y-67359575D01*
X113017188Y-68207978D01*
X113031132Y-68215592D01*
X113032965Y-68215461D01*
X113039580Y-68211210D01*
X113888172Y-67362618D01*
X113894627Y-67350797D01*
X124865001Y-67350797D01*
X124868785Y-67359575D01*
X125717188Y-68207978D01*
X125731132Y-68215592D01*
X125732965Y-68215461D01*
X125739580Y-68211210D01*
X126588172Y-67362618D01*
X126594627Y-67350797D01*
X133755001Y-67350797D01*
X133758785Y-67359575D01*
X134607188Y-68207978D01*
X134621132Y-68215592D01*
X134622965Y-68215461D01*
X134629580Y-68211210D01*
X135478172Y-67362618D01*
X135484627Y-67350797D01*
X146455001Y-67350797D01*
X146458785Y-67359575D01*
X147307188Y-68207978D01*
X147321132Y-68215592D01*
X147322965Y-68215461D01*
X147329580Y-68211210D01*
X148178172Y-67362618D01*
X148184932Y-67350238D01*
X148179205Y-67342588D01*
X148009133Y-67238368D01*
X148000339Y-67233887D01*
X147790772Y-67147082D01*
X147781387Y-67144033D01*
X147560818Y-67091078D01*
X147551071Y-67089535D01*
X147324930Y-67071737D01*
X147315070Y-67071737D01*
X147088929Y-67089535D01*
X147079182Y-67091078D01*
X146858613Y-67144033D01*
X146849228Y-67147082D01*
X146639661Y-67233887D01*
X146630867Y-67238368D01*
X146464461Y-67340341D01*
X146455001Y-67350797D01*
X135484627Y-67350797D01*
X135484932Y-67350238D01*
X135479205Y-67342588D01*
X135309133Y-67238368D01*
X135300339Y-67233887D01*
X135090772Y-67147082D01*
X135081387Y-67144033D01*
X134860818Y-67091078D01*
X134851071Y-67089535D01*
X134624930Y-67071737D01*
X134615070Y-67071737D01*
X134388929Y-67089535D01*
X134379182Y-67091078D01*
X134158613Y-67144033D01*
X134149228Y-67147082D01*
X133939661Y-67233887D01*
X133930867Y-67238368D01*
X133764461Y-67340341D01*
X133755001Y-67350797D01*
X126594627Y-67350797D01*
X126594932Y-67350238D01*
X126589205Y-67342588D01*
X126419133Y-67238368D01*
X126410339Y-67233887D01*
X126200772Y-67147082D01*
X126191387Y-67144033D01*
X125970818Y-67091078D01*
X125961071Y-67089535D01*
X125734930Y-67071737D01*
X125725070Y-67071737D01*
X125498929Y-67089535D01*
X125489182Y-67091078D01*
X125268613Y-67144033D01*
X125259228Y-67147082D01*
X125049661Y-67233887D01*
X125040867Y-67238368D01*
X124874461Y-67340341D01*
X124865001Y-67350797D01*
X113894627Y-67350797D01*
X113894932Y-67350238D01*
X113889205Y-67342588D01*
X113719133Y-67238368D01*
X113710339Y-67233887D01*
X113500772Y-67147082D01*
X113491387Y-67144033D01*
X113270818Y-67091078D01*
X113261071Y-67089535D01*
X113034930Y-67071737D01*
X113025070Y-67071737D01*
X112798929Y-67089535D01*
X112789182Y-67091078D01*
X112568613Y-67144033D01*
X112559228Y-67147082D01*
X112349661Y-67233887D01*
X112340867Y-67238368D01*
X112174461Y-67340341D01*
X112165001Y-67350797D01*
X103632000Y-67350797D01*
X103632000Y-66328873D01*
X105486536Y-66328873D01*
X105493147Y-66338393D01*
X105633430Y-66459909D01*
X105638441Y-66463824D01*
X105944410Y-66678862D01*
X105949787Y-66682248D01*
X106275920Y-66865266D01*
X106281613Y-66868092D01*
X106624562Y-67017210D01*
X106630536Y-67019455D01*
X106986780Y-67133148D01*
X106992948Y-67134777D01*
X107358871Y-67211890D01*
X107365155Y-67212885D01*
X107737008Y-67252624D01*
X107743370Y-67252980D01*
X108117327Y-67254938D01*
X108123677Y-67254650D01*
X108495935Y-67218806D01*
X108502224Y-67217877D01*
X108868938Y-67144599D01*
X108875111Y-67143037D01*
X109232552Y-67033075D01*
X109238528Y-67030900D01*
X109583011Y-66885384D01*
X109588765Y-66882603D01*
X109916761Y-66703030D01*
X109922207Y-66699680D01*
X110230394Y-66487869D01*
X110235447Y-66484006D01*
X110405255Y-66339997D01*
X110412573Y-66328873D01*
X149936536Y-66328873D01*
X149943147Y-66338393D01*
X150083430Y-66459909D01*
X150088441Y-66463824D01*
X150394410Y-66678862D01*
X150399787Y-66682248D01*
X150725920Y-66865266D01*
X150731613Y-66868092D01*
X151074562Y-67017210D01*
X151080536Y-67019455D01*
X151436780Y-67133148D01*
X151442948Y-67134777D01*
X151808871Y-67211890D01*
X151815155Y-67212885D01*
X152187008Y-67252624D01*
X152193370Y-67252980D01*
X152567327Y-67254938D01*
X152573677Y-67254650D01*
X152945935Y-67218806D01*
X152952224Y-67217877D01*
X153318938Y-67144599D01*
X153325111Y-67143037D01*
X153682552Y-67033075D01*
X153688528Y-67030900D01*
X154033011Y-66885384D01*
X154038765Y-66882603D01*
X154366761Y-66703030D01*
X154372207Y-66699680D01*
X154680394Y-66487869D01*
X154685447Y-66484006D01*
X154855255Y-66339997D01*
X154863691Y-66327174D01*
X154857638Y-66316848D01*
X152412812Y-63872022D01*
X152398868Y-63864408D01*
X152397035Y-63864539D01*
X152390420Y-63868790D01*
X149943994Y-66315216D01*
X149936536Y-66328873D01*
X110412573Y-66328873D01*
X110413691Y-66327174D01*
X110407638Y-66316848D01*
X107962812Y-63872022D01*
X107948868Y-63864408D01*
X107947035Y-63864539D01*
X107940420Y-63868790D01*
X105493994Y-66315216D01*
X105486536Y-66328873D01*
X103632000Y-66328873D01*
X103632000Y-63556208D01*
X103632992Y-63540430D01*
X103636747Y-63510707D01*
X103634723Y-63490060D01*
X104191349Y-63490060D01*
X104208964Y-63863605D01*
X104209587Y-63869956D01*
X104264863Y-64239811D01*
X104266119Y-64246043D01*
X104358490Y-64608428D01*
X104360372Y-64614506D01*
X104488890Y-64965701D01*
X104491376Y-64971556D01*
X104654722Y-65307954D01*
X104657796Y-65313545D01*
X104854298Y-65631710D01*
X104857917Y-65636956D01*
X105085566Y-65933633D01*
X105089704Y-65938495D01*
X105107646Y-65957534D01*
X105121357Y-65965557D01*
X105122197Y-65965522D01*
X105130319Y-65960471D01*
X107577978Y-63512812D01*
X107584356Y-63501132D01*
X108314408Y-63501132D01*
X108314539Y-63502965D01*
X108318790Y-63509580D01*
X110768319Y-65959109D01*
X110782263Y-65966723D01*
X110783455Y-65966638D01*
X110789372Y-65962755D01*
X111019541Y-65669212D01*
X111023208Y-65664013D01*
X111223030Y-65347924D01*
X111226164Y-65342364D01*
X111393026Y-65007690D01*
X111395571Y-65001864D01*
X111527763Y-64652030D01*
X111529706Y-64645978D01*
X111625864Y-64284588D01*
X111627190Y-64278353D01*
X111686334Y-63909102D01*
X111687023Y-63902766D01*
X111708634Y-63527936D01*
X111708738Y-63524541D01*
X111708818Y-63501696D01*
X111708739Y-63498317D01*
X111708321Y-63490060D01*
X148641349Y-63490060D01*
X148658964Y-63863605D01*
X148659587Y-63869956D01*
X148714863Y-64239811D01*
X148716119Y-64246043D01*
X148808490Y-64608428D01*
X148810372Y-64614506D01*
X148938890Y-64965701D01*
X148941376Y-64971556D01*
X149104722Y-65307954D01*
X149107796Y-65313545D01*
X149304298Y-65631710D01*
X149307917Y-65636956D01*
X149535566Y-65933633D01*
X149539704Y-65938495D01*
X149557646Y-65957534D01*
X149571357Y-65965557D01*
X149572197Y-65965522D01*
X149580319Y-65960471D01*
X152027978Y-63512812D01*
X152034356Y-63501132D01*
X152764408Y-63501132D01*
X152764539Y-63502965D01*
X152768790Y-63509580D01*
X155218319Y-65959109D01*
X155232263Y-65966723D01*
X155233455Y-65966638D01*
X155239372Y-65962755D01*
X155469541Y-65669212D01*
X155473208Y-65664013D01*
X155673030Y-65347924D01*
X155676164Y-65342364D01*
X155843026Y-65007690D01*
X155845571Y-65001864D01*
X155977763Y-64652030D01*
X155979706Y-64645978D01*
X156075864Y-64284588D01*
X156077190Y-64278353D01*
X156136334Y-63909102D01*
X156137023Y-63902766D01*
X156158634Y-63527936D01*
X156158738Y-63524541D01*
X156158818Y-63501696D01*
X156158739Y-63498317D01*
X156139742Y-63123320D01*
X156139099Y-63117000D01*
X156082534Y-62747343D01*
X156081252Y-62741094D01*
X155987618Y-62379039D01*
X155985716Y-62372970D01*
X155855972Y-62022228D01*
X155853469Y-62016386D01*
X155688943Y-61680545D01*
X155685855Y-61674977D01*
X155488242Y-61357497D01*
X155484604Y-61352264D01*
X155255919Y-61056379D01*
X155251773Y-61051542D01*
X155242767Y-61042052D01*
X155229032Y-61034078D01*
X155228074Y-61034122D01*
X155220126Y-61039084D01*
X152772022Y-63487188D01*
X152764408Y-63501132D01*
X152034356Y-63501132D01*
X152035592Y-63498868D01*
X152035461Y-63497035D01*
X152031210Y-63490420D01*
X149582113Y-61041323D01*
X149568169Y-61033709D01*
X149567097Y-61033785D01*
X149559441Y-61038829D01*
X149556785Y-61041609D01*
X149552638Y-61046413D01*
X149322911Y-61341510D01*
X149319253Y-61346735D01*
X149120537Y-61663516D01*
X149117426Y-61669082D01*
X148951735Y-62004333D01*
X148949207Y-62010173D01*
X148818236Y-62360471D01*
X148816318Y-62366518D01*
X148721418Y-62728256D01*
X148720118Y-62734479D01*
X148662258Y-63103958D01*
X148661595Y-63110265D01*
X148641371Y-63483704D01*
X148641349Y-63490060D01*
X111708321Y-63490060D01*
X111689742Y-63123320D01*
X111689099Y-63117000D01*
X111632534Y-62747343D01*
X111631252Y-62741094D01*
X111537618Y-62379039D01*
X111535716Y-62372970D01*
X111405972Y-62022228D01*
X111403469Y-62016386D01*
X111238943Y-61680545D01*
X111235855Y-61674977D01*
X111038242Y-61357497D01*
X111034604Y-61352264D01*
X110805919Y-61056379D01*
X110801773Y-61051542D01*
X110792767Y-61042052D01*
X110779032Y-61034078D01*
X110778074Y-61034122D01*
X110770126Y-61039084D01*
X108322022Y-63487188D01*
X108314408Y-63501132D01*
X107584356Y-63501132D01*
X107585592Y-63498868D01*
X107585461Y-63497035D01*
X107581210Y-63490420D01*
X105132113Y-61041323D01*
X105118169Y-61033709D01*
X105117097Y-61033785D01*
X105109441Y-61038829D01*
X105106785Y-61041609D01*
X105102638Y-61046413D01*
X104872911Y-61341510D01*
X104869253Y-61346735D01*
X104670537Y-61663516D01*
X104667426Y-61669082D01*
X104501735Y-62004333D01*
X104499207Y-62010173D01*
X104368236Y-62360471D01*
X104366318Y-62366518D01*
X104271418Y-62728256D01*
X104270118Y-62734479D01*
X104212258Y-63103958D01*
X104211595Y-63110265D01*
X104191371Y-63483704D01*
X104191349Y-63490060D01*
X103634723Y-63490060D01*
X103634071Y-63483411D01*
X103633604Y-63465304D01*
X103633635Y-63464653D01*
X103650151Y-63107404D01*
X103651225Y-63095815D01*
X103704718Y-62712334D01*
X103706857Y-62700894D01*
X103783984Y-62372970D01*
X103795505Y-62323985D01*
X103798688Y-62312800D01*
X103921734Y-61945683D01*
X103925938Y-61934831D01*
X104082334Y-61580627D01*
X104087522Y-61570209D01*
X104216486Y-61338675D01*
X104275926Y-61231959D01*
X104282051Y-61222066D01*
X104500870Y-60902630D01*
X104507884Y-60893342D01*
X104690868Y-60672983D01*
X105486392Y-60672983D01*
X105492400Y-60683190D01*
X107937188Y-63127978D01*
X107951132Y-63135592D01*
X107952965Y-63135461D01*
X107959580Y-63131210D01*
X110406058Y-60684732D01*
X110412474Y-60672983D01*
X149936392Y-60672983D01*
X149942400Y-60683190D01*
X152387188Y-63127978D01*
X152401132Y-63135592D01*
X152402965Y-63135461D01*
X152409580Y-63131210D01*
X154856058Y-60684732D01*
X154863483Y-60671135D01*
X154856783Y-60661524D01*
X154706225Y-60532023D01*
X154701196Y-60528123D01*
X154394486Y-60314159D01*
X154389088Y-60310786D01*
X154062328Y-60128914D01*
X154056618Y-60126104D01*
X153713155Y-59978185D01*
X153707173Y-59975961D01*
X153350525Y-59863511D01*
X153344366Y-59861906D01*
X152978163Y-59786068D01*
X152971885Y-59785096D01*
X152599878Y-59746653D01*
X152593547Y-59746321D01*
X152219559Y-59745670D01*
X152213218Y-59745980D01*
X151841096Y-59783122D01*
X151834803Y-59784074D01*
X151468343Y-59858630D01*
X151462170Y-59860215D01*
X151105127Y-59971423D01*
X151099157Y-59973619D01*
X150755172Y-60120340D01*
X150749445Y-60123134D01*
X150422060Y-60303860D01*
X150416642Y-60307220D01*
X150109200Y-60520104D01*
X150104141Y-60524000D01*
X149944822Y-60660070D01*
X149936392Y-60672983D01*
X110412474Y-60672983D01*
X110413483Y-60671135D01*
X110406783Y-60661524D01*
X110256225Y-60532023D01*
X110251196Y-60528123D01*
X109944486Y-60314159D01*
X109939088Y-60310786D01*
X109612328Y-60128914D01*
X109606618Y-60126104D01*
X109263155Y-59978185D01*
X109257173Y-59975961D01*
X108900525Y-59863511D01*
X108894366Y-59861906D01*
X108528163Y-59786068D01*
X108521885Y-59785096D01*
X108149878Y-59746653D01*
X108143547Y-59746321D01*
X107769559Y-59745670D01*
X107763218Y-59745980D01*
X107391096Y-59783122D01*
X107384803Y-59784074D01*
X107018343Y-59858630D01*
X107012170Y-59860215D01*
X106655127Y-59971423D01*
X106649157Y-59973619D01*
X106305172Y-60120340D01*
X106299445Y-60123134D01*
X105972060Y-60303860D01*
X105966642Y-60307220D01*
X105659200Y-60520104D01*
X105654141Y-60524000D01*
X105494822Y-60660070D01*
X105486392Y-60672983D01*
X104690868Y-60672983D01*
X104755244Y-60595458D01*
X104763085Y-60586858D01*
X105036858Y-60313085D01*
X105045458Y-60305244D01*
X105343342Y-60057884D01*
X105352630Y-60050870D01*
X105630952Y-59860215D01*
X105672067Y-59832050D01*
X105681961Y-59825925D01*
X106020209Y-59637522D01*
X106030627Y-59632334D01*
X106384831Y-59475938D01*
X106395683Y-59471734D01*
X106579242Y-59410211D01*
X106762809Y-59348685D01*
X106773985Y-59345505D01*
X107150894Y-59256857D01*
X107162334Y-59254718D01*
X107545815Y-59201225D01*
X107557404Y-59200151D01*
X107903816Y-59184135D01*
X107925425Y-59184995D01*
X107939293Y-59186747D01*
X107981578Y-59182601D01*
X107993872Y-59182000D01*
X152343792Y-59182000D01*
X152359570Y-59182992D01*
G37*
%TD.AperFunction*%
%TD*%
M02*
