M48
; DRILL file {KiCad (5.99.0-12181-g5e8b23af64)} date Sat Sep  4 21:07:05 2021
; FORMAT={-:-/ absolute / inch / decimal}
; #@! TF.CreationDate,2021-09-04T21:07:05-05:00
; #@! TF.GenerationSoftware,Kicad,Pcbnew,(5.99.0-12181-g5e8b23af64)
; #@! TF.FileFunction,MixedPlating,1,4
FMAT,2
INCH
; #@! TA.AperFunction,Plated,PTH,ViaDrill
T1C0.0157
; #@! TA.AperFunction,Plated,PTH,ComponentDrill
T2C0.0400
; #@! TA.AperFunction,Plated,PTH,ComponentDrill
T3C0.0520
; #@! TA.AperFunction,Plated,PTH,ComponentDrill
T4C0.0531
; #@! TA.AperFunction,Plated,PTH,ComponentDrill
T5C0.1181
%
G90
G05
T1
X4.175Y-2.7
X4.175Y-2.85
X4.175Y-3.0
X4.175Y-3.15
X4.175Y-3.3
X4.175Y-3.45
X4.175Y-3.6
X4.175Y-3.75
X4.175Y-3.9
X4.175Y-4.05
X4.25Y-2.775
X4.25Y-2.925
X4.25Y-3.075
X4.25Y-3.225
X4.25Y-3.375
X4.25Y-3.525
X4.25Y-3.675
X4.25Y-3.825
X4.25Y-3.975
X4.325Y-2.7
X4.325Y-2.85
X4.325Y-3.0
X4.325Y-3.15
X4.325Y-3.3
X4.325Y-3.45
X4.325Y-3.6
X4.325Y-3.75
X4.325Y-3.9
X4.325Y-4.05
X4.45Y-2.4
X4.45Y-2.55
X4.45Y-4.2
X4.45Y-4.35
X4.525Y-2.475
X4.525Y-4.275
X4.6Y-2.4
X4.6Y-2.55
X4.6Y-4.2
X4.6Y-4.35
X4.675Y-2.475
X4.675Y-4.275
X4.75Y-2.4
X4.75Y-2.55
X4.75Y-4.2
X4.75Y-4.35
X4.825Y-2.475
X4.825Y-4.275
X4.9Y-2.4
X4.9Y-2.55
X4.9Y-4.2
X4.9Y-4.35
X4.975Y-2.475
X4.975Y-4.275
X5.05Y-2.4
X5.05Y-2.55
X5.05Y-4.2
X5.05Y-4.35
X5.125Y-2.475
X5.125Y-4.275
X5.2Y-2.4
X5.2Y-2.55
X5.2Y-4.2
X5.2Y-4.35
X5.275Y-2.475
X5.275Y-4.275
X5.35Y-2.4
X5.35Y-2.55
X5.35Y-4.2
X5.35Y-4.35
X5.425Y-2.475
X5.425Y-4.275
X5.5Y-2.4
X5.5Y-2.55
X5.5Y-4.2
X5.5Y-4.35
X5.575Y-2.475
X5.575Y-4.275
X5.65Y-2.4
X5.65Y-2.55
X5.65Y-4.2
X5.65Y-4.35
X5.725Y-2.475
X5.725Y-4.275
X5.8Y-2.4
X5.8Y-2.55
X5.8Y-4.2
X5.8Y-4.35
X5.925Y-2.7
X5.925Y-2.85
X5.925Y-3.0
X5.925Y-3.15
X5.925Y-3.3
X5.925Y-3.45
X5.925Y-3.6
X5.925Y-3.75
X5.925Y-3.9
X5.925Y-4.05
X6.0Y-2.775
X6.0Y-2.925
X6.0Y-3.075
X6.0Y-3.225
X6.0Y-3.375
X6.0Y-3.525
X6.0Y-3.675
X6.0Y-3.825
X6.0Y-3.975
X6.075Y-2.7
X6.075Y-2.85
X6.075Y-3.0
X6.075Y-3.15
X6.075Y-3.3
X6.075Y-3.45
X6.075Y-3.6
X6.075Y-3.75
X6.075Y-3.9
X6.075Y-4.05
T2
X4.525Y-3.375
X4.625Y-3.375
X4.725Y-3.375
X4.825Y-3.375
X5.425Y-3.375
X5.525Y-3.375
X5.625Y-3.375
X5.725Y-3.375
T3
X4.45Y-2.7
X4.45Y-3.2
X4.45Y-3.55
X4.45Y-4.05
X4.7Y-2.95
X4.7Y-3.8
X4.95Y-2.7
X4.95Y-3.55
X5.3Y-2.7
X5.3Y-3.2
X5.3Y-3.55
X5.3Y-4.05
X5.55Y-2.95
X5.55Y-3.8
X5.8Y-2.7
X5.8Y-3.55
T4
X4.95Y-3.2
X4.95Y-4.05
X5.8Y-3.2
X5.8Y-4.05
T5
X4.25Y-2.5
X4.25Y-4.25
X6.0Y-2.5
X6.0Y-4.25
T0
M30
